# MagicaVoxel @ Ephtracy

# group
o 

# material
mtllib character_export.mtl
usemtl palette

# normals
vn -1 0 0
vn 1 0 0
vn 0 0 1
vn 0 0 -1
vn 0 -1 0
vn 0 1 0

# texcoords
vt 0.00976562 0.5
vt 0.0175781 0.5
vt 0.0332031 0.5
vt 0.0488281 0.5
vt 0.0527344 0.5
vt 0.0605469 0.5
vt 0.0878906 0.5
vt 0.0917969 0.5
vt 0.111328 0.5
vt 0.150391 0.5
vt 0.177734 0.5

# verts
v -0.7 1.2 0.5
v -0.7 1.2 -0.5
v -0.7 1.3 0.5
v -0.7 1.3 -0.5
v -0.6 1.2 0.6
v -0.6 1.2 0.5
v -0.6 1.2 -0.5
v -0.6 1.2 -0.6
v -0.6 1.3 0.6
v -0.6 1.3 0.5
v -0.6 1.3 -0.5
v -0.6 1.3 -0.6
v -0.5 0.3 0.1
v -0.5 0.3 -0.1
v -0.5 0.5 0.1
v -0.5 0.5 -0.1
v -0.5 0.9 0.1
v -0.5 0.9 -0.1
v -0.5 0.9 -0.3
v -0.5 0.9 -0.4
v -0.5 1 0.2
v -0.5 1 0.1
v -0.5 1 -0.2
v -0.5 1 -0.3
v -0.5 1.1 0.1
v -0.5 1.1 -0.1
v -0.5 1.1 -0.2
v -0.5 1.2 0.2
v -0.5 1.2 -0.4
v -0.4 0.8 0.3
v -0.4 0.8 0.2
v -0.4 0.8 -0.3
v -0.4 0.9 0.2
v -0.4 0.9 0.1
v -0.4 0.9 -0.1
v -0.4 0.9 -0.3
v -0.4 1 0.2
v -0.4 1 0.1
v -0.4 1 -0.2
v -0.4 1 -0.3
v -0.4 1.1 -0.1
v -0.4 1.1 -0.2
v -0.4 1.2 0.3
v -0.4 1.2 0.2
v -0.4 1.3 0.3
v -0.4 1.3 -0.3
v -0.4 1.4 0.3
v -0.4 1.4 -0.3
v -0.4 1.5 0.3
v -0.4 1.5 -0.3
v -0.3 0 0.1
v -0.3 0 -0.3
v -0.3 0.1 -0.2
v -0.3 0.1 -0.3
v -0.3 0.2 0.1
v -0.3 0.2 -0.2
v -0.3 0.7 0.1
v -0.3 0.7 -0.3
v -0.3 0.8 0.1
v -0.3 0.8 -0.3
v -0.3 0.9 0.4
v -0.3 0.9 0.3
v -0.3 1.2 0.4
v -0.3 1.2 0.3
v -0.3 1.3 0.4
v -0.3 1.3 0.3
v -0.3 1.3 -0.3
v -0.3 1.3 -0.4
v -0.3 1.4 0.4
v -0.3 1.4 0.3
v -0.3 1.4 -0.3
v -0.3 1.4 -0.4
v -0.3 1.5 0.4
v -0.3 1.5 0.3
v -0.3 1.5 -0.3
v -0.3 1.5 -0.4
v -0.2 0.3 0.1
v -0.2 0.3 -0.1
v -0.2 0.4 0.4
v -0.2 0.4 0.1
v -0.2 0.4 0
v -0.2 0.4 -0.1
v -0.2 0.4 -0.2
v -0.2 0.5 0.1
v -0.2 0.5 0
v -0.2 0.5 -0.1
v -0.2 0.6 0.1
v -0.2 0.6 0
v -0.2 0.7 0.4
v -0.2 0.7 0.3
v -0.2 0.7 0.1
v -0.2 0.7 -0.1
v -0.2 0.7 -0.2
v -0.2 0.8 0.4
v -0.2 0.8 0.3
v -0.2 0.8 0.2
v -0.2 0.8 0.1
v -0.2 0.9 0.4
v -0.2 0.9 0.3
v -0.2 1 -0.3
v -0.2 1 -0.4
v -0.2 1.1 -0.3
v -0.2 1.1 -0.4
v -0.1 0.9 -0.4
v -0.1 0.9 -0.5
v -0.1 1.1 -0.4
v -0.1 1.1 -0.5
v 0 0.7 -0.3
v 0 0.7 -0.4
v 0 0.7 -0.5
v 0 0.8 -0.3
v 0 0.8 -0.4
v 0 0.8 -0.5
v 0.1 0 0.1
v 0.1 0 -0.3
v 0.1 0.1 -0.2
v 0.1 0.1 -0.3
v 0.1 0.2 0.1
v 0.1 0.2 -0.2
v 0.3 0.3 0.1
v 0.3 0.3 -0.1
v 0.3 0.5 0.1
v 0.3 0.5 -0.1
v 0.4 1 -0.3
v 0.4 1 -0.4
v 0.4 1.1 -0.3
v 0.4 1.1 -0.4
v -0.4 1 -0.3
v -0.4 1 -0.4
v -0.4 1.1 -0.3
v -0.4 1.1 -0.4
v -0.3 0.3 0.1
v -0.3 0.3 -0.1
v -0.3 0.5 0.1
v -0.3 0.5 -0.1
v -0.1 0 0.1
v -0.1 0 -0.3
v -0.1 0.1 -0.2
v -0.1 0.1 -0.3
v -0.1 0.2 0.1
v -0.1 0.2 -0.2
v 0.1 0.7 -0.3
v 0.1 0.7 -0.4
v 0.1 0.7 -0.5
v 0.1 0.8 -0.3
v 0.1 0.8 -0.4
v 0.1 0.8 -0.5
v 0.1 0.9 -0.4
v 0.1 0.9 -0.5
v 0.1 1.1 -0.4
v 0.1 1.1 -0.5
v 0.2 0.3 0.1
v 0.2 0.3 -0.1
v 0.2 0.4 0.4
v 0.2 0.4 0.1
v 0.2 0.4 0
v 0.2 0.4 -0.1
v 0.2 0.4 -0.2
v 0.2 0.5 0.1
v 0.2 0.5 0
v 0.2 0.5 -0.1
v 0.2 0.6 0.1
v 0.2 0.6 0
v 0.2 0.7 0.4
v 0.2 0.7 0.3
v 0.2 0.7 0.1
v 0.2 0.7 -0.1
v 0.2 0.7 -0.2
v 0.2 0.8 0.4
v 0.2 0.8 0.3
v 0.2 0.8 0.2
v 0.2 0.8 0.1
v 0.2 0.9 0.4
v 0.2 0.9 0.3
v 0.2 1 -0.3
v 0.2 1 -0.4
v 0.2 1.1 -0.3
v 0.2 1.1 -0.4
v 0.3 0 0.1
v 0.3 0 -0.3
v 0.3 0.1 -0.2
v 0.3 0.1 -0.3
v 0.3 0.2 0.1
v 0.3 0.2 -0.2
v 0.3 0.7 0.1
v 0.3 0.7 -0.3
v 0.3 0.8 0.1
v 0.3 0.8 -0.3
v 0.3 0.9 0.4
v 0.3 0.9 0.3
v 0.3 1.2 0.4
v 0.3 1.2 0.3
v 0.3 1.3 0.4
v 0.3 1.3 0.3
v 0.3 1.3 -0.3
v 0.3 1.3 -0.4
v 0.3 1.4 0.4
v 0.3 1.4 0.3
v 0.3 1.4 -0.3
v 0.3 1.4 -0.4
v 0.3 1.5 0.4
v 0.3 1.5 0.3
v 0.3 1.5 -0.3
v 0.3 1.5 -0.4
v 0.4 0.8 0.3
v 0.4 0.8 0.2
v 0.4 0.8 -0.3
v 0.4 0.9 0.2
v 0.4 0.9 0.1
v 0.4 0.9 -0.1
v 0.4 0.9 -0.3
v 0.4 1 0.2
v 0.4 1 0.1
v 0.4 1 -0.2
v 0.4 1 -0.3
v 0.4 1.1 -0.1
v 0.4 1.1 -0.2
v 0.4 1.2 0.3
v 0.4 1.2 0.2
v 0.4 1.3 0.3
v 0.4 1.3 -0.3
v 0.4 1.4 0.3
v 0.4 1.4 -0.3
v 0.4 1.5 0.3
v 0.4 1.5 -0.3
v 0.5 0.3 0.1
v 0.5 0.3 -0.1
v 0.5 0.5 0.1
v 0.5 0.5 -0.1
v 0.5 0.9 0.1
v 0.5 0.9 -0.1
v 0.5 0.9 -0.3
v 0.5 0.9 -0.4
v 0.5 1 0.2
v 0.5 1 0.1
v 0.5 1 -0.2
v 0.5 1 -0.3
v 0.5 1.1 0.1
v 0.5 1.1 -0.1
v 0.5 1.1 -0.2
v 0.5 1.2 0.2
v 0.5 1.2 -0.4
v 0.6 1.2 0.6
v 0.6 1.2 0.5
v 0.6 1.2 -0.5
v 0.6 1.2 -0.6
v 0.6 1.3 0.6
v 0.6 1.3 0.5
v 0.6 1.3 -0.5
v 0.6 1.3 -0.6
v 0.7 1.2 0.5
v 0.7 1.2 -0.5
v 0.7 1.3 0.5
v 0.7 1.3 -0.5
v -0.6 1.2 0.6
v -0.6 1.3 0.6
v 0.6 1.2 0.6
v 0.6 1.3 0.6
v -0.7 1.2 0.5
v -0.7 1.3 0.5
v -0.6 1.2 0.5
v -0.6 1.3 0.5
v 0.6 1.2 0.5
v 0.6 1.3 0.5
v 0.7 1.2 0.5
v 0.7 1.3 0.5
v -0.3 0.9 0.4
v -0.3 1.2 0.4
v -0.3 1.3 0.4
v -0.3 1.4 0.4
v -0.3 1.5 0.4
v -0.2 0.4 0.4
v -0.2 0.7 0.4
v -0.2 0.8 0.4
v -0.2 0.9 0.4
v 0.2 0.4 0.4
v 0.2 0.7 0.4
v 0.2 0.8 0.4
v 0.2 0.9 0.4
v 0.3 0.9 0.4
v 0.3 1.2 0.4
v 0.3 1.3 0.4
v 0.3 1.4 0.4
v 0.3 1.5 0.4
v -0.4 0.8 0.3
v -0.4 1.2 0.3
v -0.4 1.3 0.3
v -0.4 1.4 0.3
v -0.4 1.5 0.3
v -0.3 0.9 0.3
v -0.3 1.2 0.3
v -0.3 1.3 0.3
v -0.3 1.4 0.3
v -0.3 1.5 0.3
v -0.2 0.7 0.3
v -0.2 0.8 0.3
v -0.2 0.9 0.3
v 0.2 0.7 0.3
v 0.2 0.8 0.3
v 0.2 0.9 0.3
v 0.3 0.9 0.3
v 0.3 1.2 0.3
v 0.3 1.3 0.3
v 0.3 1.4 0.3
v 0.3 1.5 0.3
v 0.4 0.8 0.3
v 0.4 1.2 0.3
v 0.4 1.3 0.3
v 0.4 1.4 0.3
v 0.4 1.5 0.3
v -0.5 1 0.2
v -0.5 1.2 0.2
v -0.4 1 0.2
v -0.4 1.2 0.2
v 0.4 1 0.2
v 0.4 1.2 0.2
v 0.5 1 0.2
v 0.5 1.2 0.2
v -0.5 0.3 0.1
v -0.5 0.5 0.1
v -0.5 0.9 0.1
v -0.5 1 0.1
v -0.4 0.9 0.1
v -0.4 1 0.1
v -0.3 0 0.1
v -0.3 0.2 0.1
v -0.3 0.3 0.1
v -0.3 0.5 0.1
v -0.3 0.7 0.1
v -0.3 0.8 0.1
v -0.2 0.3 0.1
v -0.2 0.4 0.1
v -0.2 0.7 0.1
v -0.2 0.8 0.1
v -0.1 0 0.1
v -0.1 0.2 0.1
v 0.1 0 0.1
v 0.1 0.2 0.1
v 0.2 0.3 0.1
v 0.2 0.4 0.1
v 0.2 0.7 0.1
v 0.2 0.8 0.1
v 0.3 0 0.1
v 0.3 0.2 0.1
v 0.3 0.3 0.1
v 0.3 0.5 0.1
v 0.3 0.7 0.1
v 0.3 0.8 0.1
v 0.4 0.9 0.1
v 0.4 1 0.1
v 0.5 0.3 0.1
v 0.5 0.5 0.1
v 0.5 0.9 0.1
v 0.5 1 0.1
v -0.5 1 -0.2
v -0.5 1.1 -0.2
v -0.4 1 -0.2
v -0.4 1.1 -0.2
v 0.4 1 -0.2
v 0.4 1.1 -0.2
v 0.5 1 -0.2
v 0.5 1.1 -0.2
v -0.5 0.9 -0.3
v -0.5 1 -0.3
v -0.4 0.9 -0.3
v -0.4 1 -0.3
v 0.4 0.9 -0.3
v 0.4 1 -0.3
v 0.5 0.9 -0.3
v 0.5 1 -0.3
v -0.5 0.3 -0.1
v -0.5 0.5 -0.1
v -0.5 0.9 -0.1
v -0.5 1.1 -0.1
v -0.4 0.9 -0.1
v -0.4 1.1 -0.1
v -0.3 0.3 -0.1
v -0.3 0.5 -0.1
v -0.2 0.3 -0.1
v -0.2 0.4 -0.1
v -0.1 0.4 -0.1
v 0.1 0.4 -0.1
v 0.2 0.3 -0.1
v 0.2 0.4 -0.1
v 0.3 0.3 -0.1
v 0.3 0.5 -0.1
v 0.4 0.9 -0.1
v 0.4 1.1 -0.1
v 0.5 0.3 -0.1
v 0.5 0.5 -0.1
v 0.5 0.9 -0.1
v 0.5 1.1 -0.1
v -0.3 0.1 -0.2
v -0.3 0.2 -0.2
v -0.2 0.4 -0.2
v -0.2 0.7 -0.2
v -0.1 0.1 -0.2
v -0.1 0.2 -0.2
v -0.1 0.4 -0.2
v -0.1 0.7 -0.2
v 0.1 0.1 -0.2
v 0.1 0.2 -0.2
v 0.1 0.4 -0.2
v 0.1 0.7 -0.2
v 0.2 0.4 -0.2
v 0.2 0.7 -0.2
v 0.3 0.1 -0.2
v 0.3 0.2 -0.2
v -0.4 0.8 -0.3
v -0.4 0.9 -0.3
v -0.4 1 -0.3
v -0.4 1.1 -0.3
v -0.4 1.3 -0.3
v -0.4 1.4 -0.3
v -0.4 1.5 -0.3
v -0.3 0 -0.3
v -0.3 0.1 -0.3
v -0.3 0.7 -0.3
v -0.3 0.8 -0.3
v -0.3 1.3 -0.3
v -0.3 1.4 -0.3
v -0.3 1.5 -0.3
v -0.2 1 -0.3
v -0.2 1.1 -0.3
v -0.1 0 -0.3
v -0.1 0.1 -0.3
v -0.1 0.7 -0.3
v -0.1 0.8 -0.3
v -0.1 0.9 -0.3
v 0 0.7 -0.3
v 0 0.8 -0.3
v 0.1 0 -0.3
v 0.1 0.1 -0.3
v 0.1 0.7 -0.3
v 0.1 0.8 -0.3
v 0.1 0.9 -0.3
v 0.2 1 -0.3
v 0.2 1.1 -0.3
v 0.3 0 -0.3
v 0.3 0.1 -0.3
v 0.3 0.7 -0.3
v 0.3 0.8 -0.3
v 0.3 1.3 -0.3
v 0.3 1.4 -0.3
v 0.3 1.5 -0.3
v 0.4 0.8 -0.3
v 0.4 0.9 -0.3
v 0.4 1 -0.3
v 0.4 1.1 -0.3
v 0.4 1.3 -0.3
v 0.4 1.4 -0.3
v 0.4 1.5 -0.3
v -0.5 0.9 -0.4
v -0.5 1.2 -0.4
v -0.4 1 -0.4
v -0.4 1.1 -0.4
v -0.3 1.3 -0.4
v -0.3 1.4 -0.4
v -0.3 1.5 -0.4
v -0.2 1 -0.4
v -0.2 1.1 -0.4
v -0.1 0.9 -0.4
v -0.1 1.1 -0.4
v 0.1 0.9 -0.4
v 0.1 1.1 -0.4
v 0.2 1 -0.4
v 0.2 1.1 -0.4
v 0.3 1.3 -0.4
v 0.3 1.4 -0.4
v 0.3 1.5 -0.4
v 0.4 1 -0.4
v 0.4 1.1 -0.4
v 0.5 0.9 -0.4
v 0.5 1.2 -0.4
v -0.7 1.2 -0.5
v -0.7 1.3 -0.5
v -0.6 1.2 -0.5
v -0.6 1.3 -0.5
v -0.1 0.9 -0.5
v -0.1 1.1 -0.5
v 0 0.7 -0.5
v 0 0.8 -0.5
v 0.1 0.7 -0.5
v 0.1 0.8 -0.5
v 0.1 0.9 -0.5
v 0.1 1.1 -0.5
v 0.6 1.2 -0.5
v 0.6 1.3 -0.5
v 0.7 1.2 -0.5
v 0.7 1.3 -0.5
v -0.6 1.2 -0.6
v -0.6 1.3 -0.6
v 0.6 1.2 -0.6
v 0.6 1.3 -0.6
v -0.3 0 0.1
v -0.1 0 0.1
v 0.1 0 0.1
v 0.3 0 0.1
v -0.3 0 -0.3
v -0.1 0 -0.3
v 0.1 0 -0.3
v 0.3 0 -0.3
v -0.5 0.3 0.1
v -0.3 0.3 0.1
v -0.2 0.3 0.1
v 0.2 0.3 0.1
v 0.3 0.3 0.1
v 0.5 0.3 0.1
v -0.5 0.3 -0.1
v -0.3 0.3 -0.1
v -0.2 0.3 -0.1
v 0.2 0.3 -0.1
v 0.3 0.3 -0.1
v 0.5 0.3 -0.1
v -0.2 0.4 0.4
v 0.2 0.4 0.4
v -0.2 0.4 0.1
v 0.2 0.4 0.1
v -0.2 0.4 -0.1
v -0.1 0.4 -0.1
v 0.1 0.4 -0.1
v 0.2 0.4 -0.1
v -0.2 0.4 -0.2
v -0.1 0.4 -0.2
v 0.1 0.4 -0.2
v 0.2 0.4 -0.2
v -0.3 0.7 0.1
v -0.2 0.7 0.1
v 0.2 0.7 0.1
v 0.3 0.7 0.1
v -0.2 0.7 -0.1
v 0.2 0.7 -0.1
v -0.2 0.7 -0.2
v -0.1 0.7 -0.2
v 0.1 0.7 -0.2
v 0.2 0.7 -0.2
v -0.3 0.7 -0.3
v -0.1 0.7 -0.3
v 0 0.7 -0.3
v 0.1 0.7 -0.3
v 0.3 0.7 -0.3
v 0 0.7 -0.4
v 0.1 0.7 -0.4
v 0 0.7 -0.5
v 0.1 0.7 -0.5
v -0.2 0.8 0.4
v 0.2 0.8 0.4
v -0.4 0.8 0.3
v -0.2 0.8 0.3
v 0.2 0.8 0.3
v 0.4 0.8 0.3
v -0.4 0.8 0.2
v -0.3 0.8 0.2
v -0.2 0.8 0.2
v 0.2 0.8 0.2
v 0.4 0.8 0.2
v -0.3 0.8 0.1
v -0.2 0.8 0.1
v 0.2 0.8 0.1
v 0.3 0.8 0.1
v -0.4 0.8 -0.3
v -0.3 0.8 -0.3
v 0.3 0.8 -0.3
v 0.4 0.8 -0.3
v -0.3 0.9 0.4
v -0.2 0.9 0.4
v 0.2 0.9 0.4
v 0.3 0.9 0.4
v -0.3 0.9 0.3
v -0.2 0.9 0.3
v 0.2 0.9 0.3
v 0.3 0.9 0.3
v -0.5 0.9 0.1
v -0.4 0.9 0.1
v 0.4 0.9 0.1
v 0.5 0.9 0.1
v -0.5 0.9 -0.1
v -0.4 0.9 -0.1
v 0.4 0.9 -0.1
v 0.5 0.9 -0.1
v -0.5 0.9 -0.3
v -0.4 0.9 -0.3
v -0.1 0.9 -0.3
v 0.1 0.9 -0.3
v 0.4 0.9 -0.3
v 0.5 0.9 -0.3
v -0.5 0.9 -0.4
v -0.1 0.9 -0.4
v 0.1 0.9 -0.4
v 0.5 0.9 -0.4
v -0.1 0.9 -0.5
v 0.1 0.9 -0.5
v -0.5 1 0.2
v -0.4 1 0.2
v 0.4 1 0.2
v 0.5 1 0.2
v -0.5 1 0.1
v -0.4 1 0.1
v 0.4 1 0.1
v 0.5 1 0.1
v -0.5 1 -0.2
v -0.4 1 -0.2
v 0.4 1 -0.2
v 0.5 1 -0.2
v -0.5 1 -0.3
v -0.4 1 -0.3
v 0.4 1 -0.3
v 0.5 1 -0.3
v -0.5 1.1 -0.1
v -0.4 1.1 -0.1
v 0.4 1.1 -0.1
v 0.5 1.1 -0.1
v -0.5 1.1 -0.2
v -0.4 1.1 -0.2
v 0.4 1.1 -0.2
v 0.5 1.1 -0.2
v -0.4 1.1 -0.3
v -0.2 1.1 -0.3
v 0.2 1.1 -0.3
v 0.4 1.1 -0.3
v -0.4 1.1 -0.4
v -0.2 1.1 -0.4
v 0.2 1.1 -0.4
v 0.4 1.1 -0.4
v -0.6 1.2 0.6
v 0.6 1.2 0.6
v -0.7 1.2 0.5
v -0.6 1.2 0.5
v 0.6 1.2 0.5
v 0.7 1.2 0.5
v -0.3 1.2 0.4
v 0.3 1.2 0.4
v -0.4 1.2 0.3
v -0.3 1.2 0.3
v 0.3 1.2 0.3
v 0.4 1.2 0.3
v -0.5 1.2 0.2
v -0.4 1.2 0.2
v 0.4 1.2 0.2
v 0.5 1.2 0.2
v -0.5 1.2 -0.4
v 0.5 1.2 -0.4
v -0.7 1.2 -0.5
v -0.6 1.2 -0.5
v 0.6 1.2 -0.5
v 0.7 1.2 -0.5
v -0.6 1.2 -0.6
v 0.6 1.2 -0.6
v -0.3 0.1 -0.2
v -0.1 0.1 -0.2
v 0.1 0.1 -0.2
v 0.3 0.1 -0.2
v -0.3 0.1 -0.3
v -0.1 0.1 -0.3
v 0.1 0.1 -0.3
v 0.3 0.1 -0.3
v -0.3 0.2 0.1
v -0.1 0.2 0.1
v 0.1 0.2 0.1
v 0.3 0.2 0.1
v -0.3 0.2 -0.2
v -0.1 0.2 -0.2
v 0.1 0.2 -0.2
v 0.3 0.2 -0.2
v -0.5 0.5 0.1
v -0.3 0.5 0.1
v 0.3 0.5 0.1
v 0.5 0.5 0.1
v -0.5 0.5 -0.1
v -0.3 0.5 -0.1
v 0.3 0.5 -0.1
v 0.5 0.5 -0.1
v -0.2 0.7 0.4
v 0.2 0.7 0.4
v -0.2 0.7 0.3
v 0.2 0.7 0.3
v 0 0.8 -0.3
v 0.1 0.8 -0.3
v 0 0.8 -0.4
v 0.1 0.8 -0.4
v 0 0.8 -0.5
v 0.1 0.8 -0.5
v -0.4 1 -0.3
v -0.2 1 -0.3
v 0.2 1 -0.3
v 0.4 1 -0.3
v -0.4 1 -0.4
v -0.2 1 -0.4
v 0.2 1 -0.4
v 0.4 1 -0.4
v -0.1 1.1 -0.4
v 0.1 1.1 -0.4
v -0.1 1.1 -0.5
v 0.1 1.1 -0.5
v -0.6 1.3 0.6
v 0.6 1.3 0.6
v -0.7 1.3 0.5
v -0.6 1.3 0.5
v 0.6 1.3 0.5
v 0.7 1.3 0.5
v -0.3 1.3 0.4
v 0.3 1.3 0.4
v -0.4 1.3 0.3
v -0.3 1.3 0.3
v 0.3 1.3 0.3
v 0.4 1.3 0.3
v -0.4 1.3 -0.3
v -0.3 1.3 -0.3
v 0.3 1.3 -0.3
v 0.4 1.3 -0.3
v -0.3 1.3 -0.4
v 0.3 1.3 -0.4
v -0.7 1.3 -0.5
v -0.6 1.3 -0.5
v 0.6 1.3 -0.5
v 0.7 1.3 -0.5
v -0.6 1.3 -0.6
v 0.6 1.3 -0.6
v -0.3 1.5 0.4
v 0.3 1.5 0.4
v -0.4 1.5 0.3
v -0.3 1.5 0.3
v 0.3 1.5 0.3
v 0.4 1.5 0.3
v -0.4 1.5 -0.3
v -0.3 1.5 -0.3
v 0.3 1.5 -0.3
v 0.4 1.5 -0.3
v -0.3 1.5 -0.4
v 0.3 1.5 -0.4

# faces
f 3/7/1 2/7/1 1/7/1
f 4/7/1 2/7/1 3/7/1
f 9/7/1 6/7/1 5/7/1
f 10/7/1 6/7/1 9/7/1
f 11/7/1 8/7/1 7/7/1
f 12/7/1 8/7/1 11/7/1
f 15/6/1 14/6/1 13/6/1
f 16/6/1 14/6/1 15/6/1
f 22/6/1 18/6/1 17/6/1
f 24/10/1 20/10/1 19/10/1
f 25/10/1 22/10/1 21/10/1
f 25/6/1 18/6/1 22/6/1
f 26/6/1 18/6/1 25/6/1
f 27/10/1 24/10/1 23/10/1
f 28/10/1 26/10/1 25/10/1
f 28/10/1 27/10/1 26/10/1
f 28/10/1 25/10/1 21/10/1
f 29/10/1 24/10/1 27/10/1
f 29/10/1 27/10/1 28/10/1
f 29/10/1 20/10/1 24/10/1
f 33/5/1 31/5/1 30/5/1
f 33/6/1 32/6/1 31/6/1
f 34/6/1 32/6/1 33/6/1
f 35/6/1 32/6/1 34/6/1
f 36/6/1 32/6/1 35/6/1
f 37/5/1 33/5/1 30/5/1
f 37/5/1 34/5/1 33/5/1
f 38/5/1 34/5/1 37/5/1
f 39/6/1 36/6/1 35/6/1
f 40/6/1 36/6/1 39/6/1
f 41/6/1 39/6/1 35/6/1
f 42/6/1 39/6/1 41/6/1
f 43/5/1 37/5/1 30/5/1
f 44/5/1 37/5/1 43/5/1
f 47/9/1 46/9/1 45/9/1
f 48/9/1 46/9/1 47/9/1
f 49/7/1 48/7/1 47/7/1
f 50/7/1 48/7/1 49/7/1
f 53/10/1 52/10/1 51/10/1
f 54/10/1 52/10/1 53/10/1
f 55/10/1 53/10/1 51/10/1
f 56/10/1 53/10/1 55/10/1
f 59/6/1 58/6/1 57/6/1
f 60/6/1 58/6/1 59/6/1
f 63/5/1 62/5/1 61/5/1
f 64/5/1 62/5/1 63/5/1
f 69/9/1 66/9/1 65/9/1
f 70/9/1 66/9/1 69/9/1
f 71/9/1 68/9/1 67/9/1
f 72/9/1 68/9/1 71/9/1
f 73/7/1 70/7/1 69/7/1
f 74/7/1 70/7/1 73/7/1
f 75/7/1 72/7/1 71/7/1
f 76/7/1 72/7/1 75/7/1
f 80/1/1 78/1/1 77/1/1
f 81/1/1 78/1/1 80/1/1
f 82/1/1 78/1/1 81/1/1
f 84/3/1 80/3/1 79/3/1
f 84/3/1 81/3/1 80/3/1
f 85/2/1 83/2/1 82/2/1
f 85/3/1 81/3/1 84/3/1
f 85/2/1 82/2/1 81/2/1
f 86/2/1 83/2/1 85/2/1
f 87/3/1 84/3/1 79/3/1
f 87/2/1 85/2/1 84/2/1
f 88/3/1 86/3/1 85/3/1
f 88/2/1 85/2/1 87/2/1
f 89/3/1 87/3/1 79/3/1
f 89/3/1 88/3/1 87/3/1
f 90/3/1 88/3/1 89/3/1
f 91/3/1 88/3/1 90/3/1
f 92/2/1 83/2/1 86/2/1
f 92/3/1 88/3/1 91/3/1
f 92/3/1 86/3/1 88/3/1
f 93/2/1 83/2/1 92/2/1
f 95/3/1 91/3/1 90/3/1
f 96/3/1 91/3/1 95/3/1
f 97/3/1 91/3/1 96/3/1
f 98/5/1 95/5/1 94/5/1
f 99/5/1 95/5/1 98/5/1
f 102/10/1 101/10/1 100/10/1
f 103/10/1 101/10/1 102/10/1
f 106/6/1 105/6/1 104/6/1
f 107/6/1 105/6/1 106/6/1
f 111/7/1 109/7/1 108/7/1
f 112/8/1 110/8/1 109/8/1
f 112/7/1 109/7/1 111/7/1
f 113/8/1 110/8/1 112/8/1
f 116/10/1 115/10/1 114/10/1
f 117/10/1 115/10/1 116/10/1
f 118/10/1 116/10/1 114/10/1
f 119/10/1 116/10/1 118/10/1
f 122/6/1 121/6/1 120/6/1
f 123/6/1 121/6/1 122/6/1
f 126/10/1 125/10/1 124/10/1
f 127/10/1 125/10/1 126/10/1
f 128/10/2 129/10/2 130/10/2
f 130/10/2 129/10/2 131/10/2
f 132/6/2 133/6/2 134/6/2
f 134/6/2 133/6/2 135/6/2
f 136/10/2 137/10/2 138/10/2
f 138/10/2 137/10/2 139/10/2
f 136/10/2 138/10/2 140/10/2
f 140/10/2 138/10/2 141/10/2
f 142/7/2 143/7/2 145/7/2
f 143/8/2 144/8/2 146/8/2
f 145/7/2 143/7/2 146/7/2
f 146/8/2 144/8/2 147/8/2
f 148/6/2 149/6/2 150/6/2
f 150/6/2 149/6/2 151/6/2
f 152/1/2 153/1/2 155/1/2
f 155/1/2 153/1/2 156/1/2
f 156/1/2 153/1/2 157/1/2
f 154/3/2 155/3/2 159/3/2
f 155/3/2 156/3/2 159/3/2
f 157/2/2 158/2/2 160/2/2
f 159/3/2 156/3/2 160/3/2
f 156/2/2 157/2/2 160/2/2
f 160/2/2 158/2/2 161/2/2
f 154/3/2 159/3/2 162/3/2
f 159/2/2 160/2/2 162/2/2
f 160/3/2 161/3/2 163/3/2
f 162/2/2 160/2/2 163/2/2
f 154/3/2 162/3/2 164/3/2
f 162/3/2 163/3/2 164/3/2
f 164/3/2 163/3/2 165/3/2
f 165/3/2 163/3/2 166/3/2
f 161/2/2 158/2/2 167/2/2
f 166/3/2 163/3/2 167/3/2
f 163/3/2 161/3/2 167/3/2
f 167/2/2 158/2/2 168/2/2
f 165/3/2 166/3/2 170/3/2
f 170/3/2 166/3/2 171/3/2
f 171/3/2 166/3/2 172/3/2
f 169/5/2 170/5/2 173/5/2
f 173/5/2 170/5/2 174/5/2
f 175/10/2 176/10/2 177/10/2
f 177/10/2 176/10/2 178/10/2
f 179/10/2 180/10/2 181/10/2
f 181/10/2 180/10/2 182/10/2
f 179/10/2 181/10/2 183/10/2
f 183/10/2 181/10/2 184/10/2
f 185/6/2 186/6/2 187/6/2
f 187/6/2 186/6/2 188/6/2
f 189/5/2 190/5/2 191/5/2
f 191/5/2 190/5/2 192/5/2
f 193/9/2 194/9/2 197/9/2
f 197/9/2 194/9/2 198/9/2
f 195/9/2 196/9/2 199/9/2
f 199/9/2 196/9/2 200/9/2
f 197/7/2 198/7/2 201/7/2
f 201/7/2 198/7/2 202/7/2
f 199/7/2 200/7/2 203/7/2
f 203/7/2 200/7/2 204/7/2
f 205/5/2 206/5/2 208/5/2
f 206/6/2 207/6/2 208/6/2
f 208/6/2 207/6/2 209/6/2
f 209/6/2 207/6/2 210/6/2
f 210/6/2 207/6/2 211/6/2
f 205/5/2 208/5/2 212/5/2
f 208/5/2 209/5/2 212/5/2
f 212/5/2 209/5/2 213/5/2
f 210/6/2 211/6/2 214/6/2
f 214/6/2 211/6/2 215/6/2
f 210/6/2 214/6/2 216/6/2
f 216/6/2 214/6/2 217/6/2
f 205/5/2 212/5/2 218/5/2
f 218/5/2 212/5/2 219/5/2
f 220/9/2 221/9/2 222/9/2
f 222/9/2 221/9/2 223/9/2
f 222/7/2 223/7/2 224/7/2
f 224/7/2 223/7/2 225/7/2
f 226/6/2 227/6/2 228/6/2
f 228/6/2 227/6/2 229/6/2
f 230/6/2 231/6/2 235/6/2
f 232/10/2 233/10/2 237/10/2
f 234/10/2 235/10/2 238/10/2
f 235/6/2 231/6/2 238/6/2
f 238/6/2 231/6/2 239/6/2
f 236/10/2 237/10/2 240/10/2
f 238/10/2 239/10/2 241/10/2
f 239/10/2 240/10/2 241/10/2
f 234/10/2 238/10/2 241/10/2
f 240/10/2 237/10/2 242/10/2
f 241/10/2 240/10/2 242/10/2
f 237/10/2 233/10/2 242/10/2
f 243/7/2 244/7/2 247/7/2
f 247/7/2 244/7/2 248/7/2
f 245/7/2 246/7/2 249/7/2
f 249/7/2 246/7/2 250/7/2
f 251/7/2 252/7/2 253/7/2
f 253/7/2 252/7/2 254/7/2
f 257/7/3 256/7/3 255/7/3
f 258/7/3 256/7/3 257/7/3
f 261/7/3 260/7/3 259/7/3
f 262/7/3 260/7/3 261/7/3
f 265/7/3 264/7/3 263/7/3
f 266/7/3 264/7/3 265/7/3
f 275/5/3 268/5/3 267/5/3
f 276/3/3 273/3/3 272/3/3
f 277/3/3 273/3/3 276/3/3
f 278/5/3 275/5/3 274/5/3
f 279/5/3 268/5/3 275/5/3
f 279/5/3 275/5/3 278/5/3
f 280/5/3 268/5/3 279/5/3
f 281/5/3 268/5/3 280/5/3
f 282/9/3 270/9/3 269/9/3
f 283/7/3 271/7/3 270/7/3
f 283/9/3 270/9/3 282/9/3
f 284/7/3 271/7/3 283/7/3
f 290/5/3 286/5/3 285/5/3
f 291/5/3 286/5/3 290/5/3
f 292/9/3 288/9/3 287/9/3
f 293/7/3 289/7/3 288/7/3
f 293/9/3 288/9/3 292/9/3
f 294/7/3 289/7/3 293/7/3
f 296/5/3 290/5/3 285/5/3
f 297/5/3 290/5/3 296/5/3
f 298/3/3 296/3/3 295/3/3
f 299/3/3 296/3/3 298/3/3
f 301/5/3 300/5/3 299/5/3
f 306/5/3 301/5/3 299/5/3
f 306/5/3 302/5/3 301/5/3
f 307/5/3 302/5/3 306/5/3
f 308/9/3 304/9/3 303/9/3
f 309/7/3 305/7/3 304/7/3
f 309/9/3 304/9/3 308/9/3
f 310/7/3 305/7/3 309/7/3
f 313/10/3 312/10/3 311/10/3
f 314/10/3 312/10/3 313/10/3
f 317/10/3 316/10/3 315/10/3
f 318/10/3 316/10/3 317/10/3
f 323/6/3 322/6/3 321/6/3
f 324/6/3 322/6/3 323/6/3
f 327/6/3 320/6/3 319/6/3
f 328/6/3 320/6/3 327/6/3
f 333/6/3 330/6/3 329/6/3
f 334/6/3 330/6/3 333/6/3
f 335/10/3 326/10/3 325/10/3
f 336/10/3 326/10/3 335/10/3
f 339/1/3 332/1/3 331/1/3
f 340/1/3 332/1/3 339/1/3
f 343/10/3 338/10/3 337/10/3
f 344/10/3 338/10/3 343/10/3
f 347/6/3 342/6/3 341/6/3
f 348/6/3 342/6/3 347/6/3
f 351/6/3 346/6/3 345/6/3
f 352/6/3 346/6/3 351/6/3
f 353/6/3 350/6/3 349/6/3
f 354/6/3 350/6/3 353/6/3
f 357/10/3 356/10/3 355/10/3
f 358/10/3 356/10/3 357/10/3
f 361/10/3 360/10/3 359/10/3
f 362/10/3 360/10/3 361/10/3
f 365/10/3 364/10/3 363/10/3
f 366/10/3 364/10/3 365/10/3
f 369/10/3 368/10/3 367/10/3
f 370/10/3 368/10/3 369/10/3
f 373/6/4 374/6/4 375/6/4
f 375/6/4 374/6/4 376/6/4
f 371/6/4 372/6/4 377/6/4
f 377/6/4 372/6/4 378/6/4
f 379/1/4 380/1/4 381/1/4
f 379/1/4 381/1/4 382/1/4
f 379/1/4 382/1/4 383/1/4
f 383/1/4 382/1/4 384/1/4
f 385/6/4 386/6/4 389/6/4
f 389/6/4 386/6/4 390/6/4
f 387/6/4 388/6/4 391/6/4
f 391/6/4 388/6/4 392/6/4
f 393/10/4 394/10/4 397/10/4
f 397/10/4 394/10/4 398/10/4
f 395/2/4 396/2/4 399/2/4
f 399/2/4 396/2/4 400/2/4
f 399/6/4 400/6/4 403/6/4
f 403/6/4 400/6/4 404/6/4
f 403/2/4 404/2/4 405/2/4
f 405/2/4 404/2/4 406/2/4
f 401/10/4 402/10/4 407/10/4
f 407/10/4 402/10/4 408/10/4
f 409/6/4 410/6/4 419/6/4
f 413/9/4 414/9/4 420/9/4
f 414/7/4 415/7/4 421/7/4
f 420/9/4 414/9/4 421/9/4
f 421/7/4 415/7/4 422/7/4
f 411/11/4 412/11/4 423/11/4
f 423/11/4 412/11/4 424/11/4
f 416/10/4 417/10/4 425/10/4
f 425/10/4 417/10/4 426/10/4
f 418/6/4 419/6/4 427/6/4
f 419/6/4 410/6/4 428/6/4
f 427/6/4 419/6/4 428/6/4
f 428/6/4 410/6/4 429/6/4
f 427/9/4 428/9/4 430/9/4
f 428/6/4 429/6/4 431/6/4
f 430/9/4 428/9/4 431/9/4
f 431/6/4 429/6/4 435/6/4
f 435/6/4 429/6/4 436/6/4
f 432/10/4 433/10/4 439/10/4
f 439/10/4 433/10/4 440/10/4
f 435/6/4 436/6/4 441/6/4
f 434/6/4 435/6/4 441/6/4
f 441/6/4 436/6/4 442/6/4
f 442/6/4 436/6/4 446/6/4
f 446/6/4 436/6/4 447/6/4
f 437/11/4 438/11/4 448/11/4
f 448/11/4 438/11/4 449/11/4
f 443/9/4 444/9/4 450/9/4
f 444/7/4 445/7/4 451/7/4
f 450/9/4 444/9/4 451/9/4
f 451/7/4 445/7/4 452/7/4
f 453/10/4 454/10/4 455/10/4
f 455/10/4 454/10/4 456/10/4
f 453/10/4 455/10/4 460/10/4
f 456/10/4 454/10/4 461/10/4
f 453/10/4 460/10/4 462/10/4
f 460/10/4 461/10/4 462/10/4
f 461/10/4 454/10/4 463/10/4
f 462/10/4 461/10/4 463/10/4
f 463/10/4 454/10/4 465/10/4
f 464/10/4 465/10/4 466/10/4
f 465/10/4 454/10/4 467/10/4
f 466/10/4 465/10/4 467/10/4
f 457/9/4 458/9/4 468/9/4
f 458/7/4 459/7/4 469/7/4
f 468/9/4 458/9/4 469/9/4
f 469/7/4 459/7/4 470/7/4
f 464/10/4 466/10/4 471/10/4
f 467/10/4 454/10/4 472/10/4
f 464/10/4 471/10/4 473/10/4
f 471/10/4 472/10/4 473/10/4
f 472/10/4 454/10/4 474/10/4
f 473/10/4 472/10/4 474/10/4
f 475/7/4 476/7/4 477/7/4
f 477/7/4 476/7/4 478/7/4
f 481/8/4 482/8/4 483/8/4
f 483/8/4 482/8/4 484/8/4
f 479/6/4 480/6/4 485/6/4
f 485/6/4 480/6/4 486/6/4
f 487/7/4 488/7/4 489/7/4
f 489/7/4 488/7/4 490/7/4
f 491/7/4 492/7/4 493/7/4
f 493/7/4 492/7/4 494/7/4
f 499/10/5 496/10/5 495/10/5
f 500/10/5 496/10/5 499/10/5
f 501/10/5 498/10/5 497/10/5
f 502/10/5 498/10/5 501/10/5
f 509/6/5 504/6/5 503/6/5
f 510/6/5 504/6/5 509/6/5
f 511/1/5 506/1/5 505/1/5
f 512/1/5 506/1/5 511/1/5
f 513/6/5 508/6/5 507/6/5
f 514/6/5 508/6/5 513/6/5
f 517/3/5 516/3/5 515/3/5
f 518/3/5 516/3/5 517/3/5
f 523/2/5 520/2/5 519/2/5
f 524/6/5 521/6/5 520/6/5
f 524/2/5 520/2/5 523/2/5
f 525/2/5 522/2/5 521/2/5
f 525/6/5 521/6/5 524/6/5
f 526/2/5 522/2/5 525/2/5
f 531/6/5 528/6/5 527/6/5
f 532/6/5 530/6/5 529/6/5
f 533/6/5 531/6/5 527/6/5
f 536/6/5 530/6/5 532/6/5
f 537/6/5 533/6/5 527/6/5
f 537/6/5 534/6/5 533/6/5
f 538/9/5 535/9/5 534/9/5
f 538/6/5 534/6/5 537/6/5
f 539/9/5 535/9/5 538/9/5
f 540/6/5 536/6/5 535/6/5
f 540/9/5 535/9/5 539/9/5
f 541/6/5 530/6/5 536/6/5
f 541/6/5 536/6/5 540/6/5
f 542/7/5 540/7/5 539/7/5
f 543/7/5 540/7/5 542/7/5
f 544/8/5 543/8/5 542/8/5
f 545/8/5 543/8/5 544/8/5
f 549/5/5 547/5/5 546/5/5
f 550/5/5 547/5/5 549/5/5
f 552/5/5 549/5/5 548/5/5
f 553/5/5 549/5/5 552/5/5
f 554/5/5 549/5/5 553/5/5
f 555/5/5 551/5/5 550/5/5
f 556/5/5 551/5/5 555/5/5
f 557/9/5 554/9/5 553/9/5
f 557/6/5 553/6/5 552/6/5
f 558/9/5 554/9/5 557/9/5
f 559/6/5 556/6/5 555/6/5
f 560/6/5 556/6/5 559/6/5
f 561/6/5 557/6/5 552/6/5
f 562/6/5 557/6/5 561/6/5
f 563/6/5 556/6/5 560/6/5
f 564/6/5 556/6/5 563/6/5
f 569/5/5 566/5/5 565/5/5
f 570/5/5 566/5/5 569/5/5
f 571/5/5 568/5/5 567/5/5
f 572/5/5 568/5/5 571/5/5
f 577/6/5 574/6/5 573/6/5
f 578/6/5 574/6/5 577/6/5
f 579/6/5 576/6/5 575/6/5
f 580/6/5 576/6/5 579/6/5
f 587/10/5 582/10/5 581/10/5
f 587/10/5 583/10/5 582/10/5
f 588/9/5 584/9/5 583/9/5
f 588/10/5 583/10/5 587/10/5
f 589/10/5 586/10/5 585/10/5
f 589/9/5 584/9/5 588/9/5
f 589/10/5 585/10/5 584/10/5
f 590/10/5 586/10/5 589/10/5
f 591/6/5 589/6/5 588/6/5
f 592/6/5 589/6/5 591/6/5
f 597/10/5 594/10/5 593/10/5
f 598/10/5 594/10/5 597/10/5
f 599/10/5 596/10/5 595/10/5
f 600/10/5 596/10/5 599/10/5
f 605/10/5 602/10/5 601/10/5
f 606/10/5 602/10/5 605/10/5
f 607/10/5 604/10/5 603/10/5
f 608/10/5 604/10/5 607/10/5
f 613/10/5 610/10/5 609/10/5
f 614/10/5 610/10/5 613/10/5
f 615/10/5 612/10/5 611/10/5
f 616/10/5 612/10/5 615/10/5
f 621/10/5 618/10/5 617/10/5
f 622/10/5 618/10/5 621/10/5
f 623/10/5 620/10/5 619/10/5
f 624/10/5 620/10/5 623/10/5
f 628/7/5 626/7/5 625/7/5
f 629/7/5 626/7/5 628/7/5
f 631/7/5 628/7/5 627/7/5
f 631/7/5 630/7/5 629/7/5
f 631/7/5 629/7/5 628/7/5
f 632/7/5 630/7/5 631/7/5
f 633/7/5 631/7/5 627/7/5
f 634/7/5 631/7/5 633/7/5
f 635/7/5 630/7/5 632/7/5
f 636/7/5 630/7/5 635/7/5
f 637/7/5 633/7/5 627/7/5
f 638/7/5 633/7/5 637/7/5
f 639/7/5 630/7/5 636/7/5
f 640/7/5 630/7/5 639/7/5
f 641/7/5 637/7/5 627/7/5
f 642/7/5 630/7/5 640/7/5
f 643/7/5 641/7/5 627/7/5
f 643/7/5 642/7/5 641/7/5
f 644/7/5 642/7/5 643/7/5
f 645/7/5 630/7/5 642/7/5
f 645/7/5 642/7/5 644/7/5
f 646/7/5 630/7/5 645/7/5
f 647/7/5 645/7/5 644/7/5
f 648/7/5 645/7/5 647/7/5
f 649/10/6 650/10/6 653/10/6
f 653/10/6 650/10/6 654/10/6
f 651/10/6 652/10/6 655/10/6
f 655/10/6 652/10/6 656/10/6
f 657/10/6 658/10/6 661/10/6
f 661/10/6 658/10/6 662/10/6
f 659/10/6 660/10/6 663/10/6
f 663/10/6 660/10/6 664/10/6
f 665/6/6 666/6/6 669/6/6
f 669/6/6 666/6/6 670/6/6
f 667/6/6 668/6/6 671/6/6
f 671/6/6 668/6/6 672/6/6
f 673/3/6 674/3/6 675/3/6
f 675/3/6 674/3/6 676/3/6
f 677/7/6 678/7/6 679/7/6
f 679/7/6 678/7/6 680/7/6
f 679/8/6 680/8/6 681/8/6
f 681/8/6 680/8/6 682/8/6
f 683/10/6 684/10/6 687/10/6
f 687/10/6 684/10/6 688/10/6
f 685/10/6 686/10/6 689/10/6
f 689/10/6 686/10/6 690/10/6
f 691/6/6 692/6/6 693/6/6
f 693/6/6 692/6/6 694/6/6
f 695/7/6 696/7/6 698/7/6
f 698/7/6 696/7/6 699/7/6
f 697/7/6 698/7/6 701/7/6
f 699/7/6 700/7/6 701/7/6
f 698/7/6 699/7/6 701/7/6
f 701/7/6 700/7/6 702/7/6
f 697/7/6 701/7/6 703/7/6
f 703/7/6 701/7/6 704/7/6
f 702/7/6 700/7/6 705/7/6
f 705/7/6 700/7/6 706/7/6
f 697/7/6 703/7/6 707/7/6
f 706/7/6 700/7/6 710/7/6
f 707/7/6 708/7/6 711/7/6
f 709/7/6 710/7/6 712/7/6
f 707/7/6 711/7/6 713/7/6
f 711/7/6 712/7/6 713/7/6
f 697/7/6 707/7/6 713/7/6
f 713/7/6 712/7/6 714/7/6
f 712/7/6 710/7/6 715/7/6
f 714/7/6 712/7/6 715/7/6
f 710/7/6 700/7/6 715/7/6
f 715/7/6 700/7/6 716/7/6
f 714/7/6 715/7/6 717/7/6
f 717/7/6 715/7/6 718/7/6
f 719/7/6 720/7/6 722/7/6
f 722/7/6 720/7/6 723/7/6
f 721/7/6 722/7/6 725/7/6
f 723/7/6 724/7/6 725/7/6
f 722/7/6 723/7/6 725/7/6
f 725/7/6 724/7/6 726/7/6
f 726/7/6 724/7/6 727/7/6
f 727/7/6 724/7/6 728/7/6
f 726/7/6 727/7/6 729/7/6
f 729/7/6 727/7/6 730/7/6
