# MagicaVoxel @ Ephtracy

# group
o 

# material
mtllib test_cube.mtl
usemtl palette

# normals
vn -1 0 0
vn 1 0 0
vn 0 0 1
vn 0 0 -1
vn 0 -1 0
vn 0 1 0

# texcoords
vt 0.0410156 0.5
vt 0.0878906 0.5
vt 0.103516 0.5

# verts
v -2 0 -1.2
v -2 0 -1.4
v -2 0 -1.5
v -2 0 -1.7
v -2 0 -1.8
v -2 0 -1.9
v -2 0 -2
v -2 0.1 -1.2
v -2 0.1 -1.3
v -2 0.1 -1.4
v -2 0.1 -1.5
v -2 0.1 -1.7
v -2 0.1 -1.8
v -2 0.1 -1.9
v -2 0.1 -2
v -2 0.2 -1.2
v -2 0.2 -1.3
v -2 0.2 -1.4
v -2 0.2 -1.5
v -2 0.2 -1.7
v -2 0.3 -1.2
v -2 0.3 -1.3
v -2 0.3 -1.4
v -2 0.3 -1.6
v -2 0.3 -1.9
v -2 0.3 -2
v -2 0.4 -1.5
v -2 0.4 -1.6
v -2 0.4 -1.7
v -2 0.4 -1.8
v -2 0.4 -1.9
v -2 0.5 -1.2
v -2 0.5 -1.3
v -2 0.5 -1.4
v -2 0.5 -1.5
v -2 0.5 -1.6
v -2 0.5 -1.7
v -2 0.6 -1.3
v -2 0.6 -1.4
v -2 0.6 -1.7
v -2 0.6 -1.9
v -2 0.6 -2
v -2 0.7 -1.2
v -2 0.7 -1.3
v -2 0.7 -1.4
v -2 0.7 -1.7
v -2 0.7 -1.8
v -2 0.7 -2
v -2 0.8 -1.2
v -2 0.8 -1.4
v -2 0.8 -1.8
v -2 0.8 -2
v -1.2 0 -1.2
v -1.2 0 -1.3
v -1.2 0 -1.5
v -1.2 0 -1.7
v -1.2 0 -1.9
v -1.2 0 -2
v -1.2 0.1 -1.2
v -1.2 0.1 -1.3
v -1.2 0.1 -1.4
v -1.2 0.1 -1.5
v -1.2 0.1 -1.6
v -1.2 0.1 -1.7
v -1.2 0.1 -1.9
v -1.2 0.1 -2
v -1.2 0.2 -1.3
v -1.2 0.2 -1.4
v -1.2 0.2 -1.5
v -1.2 0.2 -1.6
v -1.2 0.2 -1.7
v -1.2 0.2 -1.8
v -1.2 0.2 -1.9
v -1.2 0.3 -1.2
v -1.2 0.3 -1.3
v -1.2 0.3 -1.4
v -1.2 0.3 -1.5
v -1.2 0.3 -1.6
v -1.2 0.3 -1.8
v -1.2 0.3 -1.9
v -1.2 0.4 -1.2
v -1.2 0.4 -1.3
v -1.2 0.4 -1.4
v -1.2 0.4 -1.5
v -1.2 0.4 -1.7
v -1.2 0.4 -1.8
v -1.2 0.5 -1.2
v -1.2 0.5 -1.3
v -1.2 0.5 -1.6
v -1.2 0.5 -1.7
v -1.2 0.5 -1.8
v -1.2 0.5 -2
v -1.2 0.6 -1.2
v -1.2 0.6 -1.3
v -1.2 0.6 -1.4
v -1.2 0.6 -1.6
v -1.2 0.6 -1.7
v -1.2 0.6 -1.8
v -1.2 0.6 -1.9
v -1.2 0.7 -1.3
v -1.2 0.7 -1.5
v -1.2 0.7 -1.6
v -1.2 0.7 -1.7
v -1.2 0.7 -1.8
v -1.2 0.8 -1.2
v -1.2 0.8 -1.6
v -1.2 0.8 -1.8
v -1.2 0.8 -1.9
v -1.2 0.8 -2
v -2 0 -1.2
v -2 0.1 -1.2
v -2 0.2 -1.2
v -2 0.3 -1.2
v -2 0.5 -1.2
v -2 0.7 -1.2
v -2 0.8 -1.2
v -1.9 0.1 -1.2
v -1.9 0.2 -1.2
v -1.9 0.3 -1.2
v -1.9 0.4 -1.2
v -1.9 0.5 -1.2
v -1.8 0 -1.2
v -1.8 0.1 -1.2
v -1.8 0.3 -1.2
v -1.8 0.4 -1.2
v -1.7 0 -1.2
v -1.7 0.1 -1.2
v -1.7 0.2 -1.2
v -1.7 0.3 -1.2
v -1.6 0.3 -1.2
v -1.6 0.4 -1.2
v -1.5 0.4 -1.2
v -1.5 0.5 -1.2
v -1.5 0.7 -1.2
v -1.5 0.8 -1.2
v -1.4 0 -1.2
v -1.4 0.2 -1.2
v -1.4 0.3 -1.2
v -1.4 0.4 -1.2
v -1.3 0.1 -1.2
v -1.3 0.2 -1.2
v -1.3 0.3 -1.2
v -1.3 0.4 -1.2
v -1.3 0.5 -1.2
v -1.3 0.6 -1.2
v -1.2 0 -1.2
v -1.2 0.1 -1.2
v -1.2 0.3 -1.2
v -1.2 0.4 -1.2
v -1.2 0.5 -1.2
v -1.2 0.6 -1.2
v -1.2 0.8 -1.2
v -2 0 -2
v -2 0.1 -2
v -2 0.3 -2
v -2 0.6 -2
v -2 0.7 -2
v -2 0.8 -2
v -1.9 0.1 -2
v -1.9 0.2 -2
v -1.9 0.3 -2
v -1.9 0.4 -2
v -1.9 0.5 -2
v -1.9 0.6 -2
v -1.9 0.7 -2
v -1.8 0.2 -2
v -1.8 0.3 -2
v -1.8 0.4 -2
v -1.8 0.5 -2
v -1.8 0.7 -2
v -1.7 0.2 -2
v -1.7 0.3 -2
v -1.7 0.5 -2
v -1.6 0 -2
v -1.6 0.1 -2
v -1.6 0.2 -2
v -1.6 0.3 -2
v -1.6 0.4 -2
v -1.6 0.5 -2
v -1.6 0.6 -2
v -1.6 0.7 -2
v -1.6 0.8 -2
v -1.5 0.1 -2
v -1.5 0.2 -2
v -1.5 0.3 -2
v -1.5 0.4 -2
v -1.5 0.5 -2
v -1.5 0.6 -2
v -1.5 0.7 -2
v -1.5 0.8 -2
v -1.4 0 -2
v -1.4 0.1 -2
v -1.4 0.3 -2
v -1.4 0.5 -2
v -1.4 0.6 -2
v -1.4 0.7 -2
v -1.3 0 -2
v -1.3 0.1 -2
v -1.3 0.5 -2
v -1.3 0.6 -2
v -1.3 0.8 -2
v -1.2 0 -2
v -1.2 0.1 -2
v -1.2 0.5 -2
v -1.2 0.8 -2
v -2 0 -1.2
v -1.8 0 -1.2
v -1.7 0 -1.2
v -1.4 0 -1.2
v -1.2 0 -1.2
v -1.9 0 -1.3
v -1.8 0 -1.3
v -1.7 0 -1.3
v -1.6 0 -1.3
v -1.5 0 -1.3
v -1.4 0 -1.3
v -1.3 0 -1.3
v -1.2 0 -1.3
v -2 0 -1.4
v -1.9 0 -1.4
v -1.7 0 -1.4
v -1.6 0 -1.4
v -1.5 0 -1.4
v -1.3 0 -1.4
v -2 0 -1.5
v -1.7 0 -1.5
v -1.6 0 -1.5
v -1.5 0 -1.5
v -1.3 0 -1.5
v -1.2 0 -1.5
v -1.8 0 -1.6
v -1.7 0 -1.6
v -1.6 0 -1.6
v -1.4 0 -1.6
v -1.3 0 -1.6
v -2 0 -1.7
v -1.9 0 -1.7
v -1.7 0 -1.7
v -1.6 0 -1.7
v -1.5 0 -1.7
v -1.3 0 -1.7
v -1.2 0 -1.7
v -2 0 -1.8
v -1.9 0 -1.8
v -1.8 0 -1.8
v -1.7 0 -1.8
v -1.6 0 -1.8
v -1.5 0 -1.8
v -1.4 0 -1.8
v -2 0 -1.9
v -1.9 0 -1.9
v -1.7 0 -1.9
v -1.6 0 -1.9
v -1.5 0 -1.9
v -1.4 0 -1.9
v -1.3 0 -1.9
v -1.2 0 -1.9
v -2 0 -2
v -1.6 0 -2
v -1.4 0 -2
v -1.3 0 -2
v -1.2 0 -2
v -2 0.8 -1.2
v -1.5 0.8 -1.2
v -1.2 0.8 -1.2
v -1.9 0.8 -1.3
v -1.8 0.8 -1.3
v -1.7 0.8 -1.3
v -2 0.8 -1.4
v -1.9 0.8 -1.4
v -1.8 0.8 -1.4
v -1.6 0.8 -1.4
v -1.5 0.8 -1.4
v -1.4 0.8 -1.4
v -1.3 0.8 -1.4
v -1.9 0.8 -1.5
v -1.7 0.8 -1.5
v -1.6 0.8 -1.5
v -1.4 0.8 -1.5
v -1.3 0.8 -1.5
v -1.9 0.8 -1.6
v -1.7 0.8 -1.6
v -1.6 0.8 -1.6
v -1.5 0.8 -1.6
v -1.3 0.8 -1.6
v -1.2 0.8 -1.6
v -1.9 0.8 -1.7
v -1.8 0.8 -1.7
v -1.7 0.8 -1.7
v -1.6 0.8 -1.7
v -1.4 0.8 -1.7
v -1.3 0.8 -1.7
v -2 0.8 -1.8
v -1.9 0.8 -1.8
v -1.8 0.8 -1.8
v -1.7 0.8 -1.8
v -1.6 0.8 -1.8
v -1.5 0.8 -1.8
v -1.3 0.8 -1.8
v -1.2 0.8 -1.8
v -1.9 0.8 -1.9
v -1.8 0.8 -1.9
v -1.5 0.8 -1.9
v -1.4 0.8 -1.9
v -1.3 0.8 -1.9
v -1.2 0.8 -1.9
v -2 0.8 -2
v -1.6 0.8 -2
v -1.5 0.8 -2
v -1.3 0.8 -2
v -1.2 0.8 -2

# faces
f 8/1/1 2/1/1 1/1/1
f 9/1/1 2/1/1 8/1/1
f 10/3/1 3/3/1 2/3/1
f 10/1/1 2/1/1 9/1/1
f 11/1/1 4/1/1 3/1/1
f 11/3/1 3/3/1 10/3/1
f 12/2/1 5/2/1 4/2/1
f 12/1/1 4/1/1 11/1/1
f 13/3/1 6/3/1 5/3/1
f 13/2/1 5/2/1 12/2/1
f 14/1/1 7/1/1 6/1/1
f 14/3/1 6/3/1 13/3/1
f 15/1/1 7/1/1 14/1/1
f 16/3/1 9/3/1 8/3/1
f 17/1/1 10/1/1 9/1/1
f 17/3/1 9/3/1 16/3/1
f 18/2/1 11/2/1 10/2/1
f 18/1/1 10/1/1 17/1/1
f 19/3/1 12/3/1 11/3/1
f 19/2/1 11/2/1 18/2/1
f 20/1/1 13/1/1 12/1/1
f 20/3/1 12/3/1 19/3/1
f 21/2/1 17/2/1 16/2/1
f 22/1/1 19/1/1 18/1/1
f 22/2/1 17/2/1 21/2/1
f 22/1/1 18/1/1 17/1/1
f 22/1/1 20/1/1 19/1/1
f 23/1/1 20/1/1 22/1/1
f 24/1/1 20/1/1 23/1/1
f 25/2/1 15/2/1 14/2/1
f 25/2/1 14/2/1 13/2/1
f 26/2/1 15/2/1 25/2/1
f 27/2/1 24/2/1 23/2/1
f 28/1/1 20/1/1 24/1/1
f 28/2/1 24/2/1 27/2/1
f 29/1/1 13/1/1 20/1/1
f 29/1/1 20/1/1 28/1/1
f 30/2/1 25/2/1 13/2/1
f 30/1/1 13/1/1 29/1/1
f 31/3/1 26/3/1 25/3/1
f 31/2/1 25/2/1 30/2/1
f 32/3/1 22/3/1 21/3/1
f 33/1/1 23/1/1 22/1/1
f 33/3/1 22/3/1 32/3/1
f 34/2/1 27/2/1 23/2/1
f 34/1/1 23/1/1 33/1/1
f 35/3/1 28/3/1 27/3/1
f 35/2/1 27/2/1 34/2/1
f 36/2/1 29/2/1 28/2/1
f 36/3/1 28/3/1 35/3/1
f 37/1/1 30/1/1 29/1/1
f 37/2/1 29/2/1 36/2/1
f 37/1/1 31/1/1 30/1/1
f 38/1/1 34/1/1 33/1/1
f 38/1/1 33/1/1 32/1/1
f 38/1/1 37/1/1 36/1/1
f 38/1/1 36/1/1 35/1/1
f 38/1/1 35/1/1 34/1/1
f 39/1/1 37/1/1 38/1/1
f 40/1/1 31/1/1 37/1/1
f 40/1/1 37/1/1 39/1/1
f 41/3/1 26/3/1 31/3/1
f 41/1/1 31/1/1 40/1/1
f 42/3/1 26/3/1 41/3/1
f 43/1/1 38/1/1 32/1/1
f 44/2/1 39/2/1 38/2/1
f 44/1/1 38/1/1 43/1/1
f 45/3/1 40/3/1 39/3/1
f 45/2/1 39/2/1 44/2/1
f 46/1/1 41/1/1 40/1/1
f 46/3/1 40/3/1 45/3/1
f 46/1/1 42/1/1 41/1/1
f 47/1/1 42/1/1 46/1/1
f 48/1/1 42/1/1 47/1/1
f 49/3/1 44/3/1 43/3/1
f 49/3/1 45/3/1 44/3/1
f 50/1/1 46/1/1 45/1/1
f 50/3/1 45/3/1 49/3/1
f 50/1/1 47/1/1 46/1/1
f 51/3/1 48/3/1 47/3/1
f 51/1/1 47/1/1 50/1/1
f 52/3/1 48/3/1 51/3/1
f 53/2/2 54/2/2 59/2/2
f 54/3/2 55/3/2 60/3/2
f 59/2/2 54/2/2 60/2/2
f 60/3/2 55/3/2 61/3/2
f 55/1/2 56/1/2 62/1/2
f 61/3/2 55/3/2 62/3/2
f 62/1/2 56/1/2 63/1/2
f 56/2/2 57/2/2 64/2/2
f 63/1/2 56/1/2 64/1/2
f 57/3/2 58/3/2 65/3/2
f 64/2/2 57/2/2 65/2/2
f 65/3/2 58/3/2 66/3/2
f 60/3/2 61/3/2 67/3/2
f 59/3/2 60/3/2 67/3/2
f 61/2/2 62/2/2 68/2/2
f 67/3/2 61/3/2 68/3/2
f 62/1/2 63/1/2 69/1/2
f 68/2/2 62/2/2 69/2/2
f 63/3/2 64/3/2 70/3/2
f 69/1/2 63/1/2 70/1/2
f 65/1/2 66/1/2 71/1/2
f 70/3/2 64/3/2 71/3/2
f 64/1/2 65/1/2 71/1/2
f 71/1/2 66/1/2 72/1/2
f 72/1/2 66/1/2 73/1/2
f 59/3/2 67/3/2 74/3/2
f 68/1/2 69/1/2 75/1/2
f 74/3/2 67/3/2 75/3/2
f 67/1/2 68/1/2 75/1/2
f 75/1/2 69/1/2 76/1/2
f 69/2/2 70/2/2 77/2/2
f 76/1/2 69/1/2 77/1/2
f 70/3/2 71/3/2 78/3/2
f 77/2/2 70/2/2 78/2/2
f 71/3/2 72/3/2 78/3/2
f 72/2/2 73/2/2 79/2/2
f 78/3/2 72/3/2 79/3/2
f 73/1/2 66/1/2 80/1/2
f 79/2/2 73/2/2 80/2/2
f 75/2/2 76/2/2 81/2/2
f 74/2/2 75/2/2 81/2/2
f 81/2/2 76/2/2 82/2/2
f 77/1/2 78/1/2 83/1/2
f 82/2/2 76/2/2 83/2/2
f 76/1/2 77/1/2 83/1/2
f 83/1/2 78/1/2 84/1/2
f 78/3/2 79/3/2 85/3/2
f 79/1/2 80/1/2 86/1/2
f 85/3/2 79/3/2 86/3/2
f 81/1/2 82/1/2 87/1/2
f 82/3/2 83/3/2 88/3/2
f 87/1/2 82/1/2 88/1/2
f 84/1/2 78/1/2 89/1/2
f 78/3/2 85/3/2 89/3/2
f 85/1/2 86/1/2 90/1/2
f 89/3/2 85/3/2 90/3/2
f 86/1/2 80/1/2 91/1/2
f 90/1/2 86/1/2 91/1/2
f 80/1/2 66/1/2 92/1/2
f 91/1/2 80/1/2 92/1/2
f 87/3/2 88/3/2 93/3/2
f 88/3/2 83/3/2 94/3/2
f 93/3/2 88/3/2 94/3/2
f 83/2/2 84/2/2 95/2/2
f 94/3/2 83/3/2 95/3/2
f 89/1/2 90/1/2 96/1/2
f 90/1/2 91/1/2 96/1/2
f 84/1/2 89/1/2 96/1/2
f 96/1/2 91/1/2 97/1/2
f 91/3/2 92/3/2 98/3/2
f 97/1/2 91/1/2 98/1/2
f 98/3/2 92/3/2 99/3/2
f 94/2/2 95/2/2 100/2/2
f 93/1/2 94/1/2 100/1/2
f 95/2/2 84/2/2 101/2/2
f 100/2/2 95/2/2 101/2/2
f 84/1/2 96/1/2 101/1/2
f 96/3/2 97/3/2 102/3/2
f 101/1/2 96/1/2 102/1/2
f 98/1/2 99/1/2 103/1/2
f 102/3/2 97/3/2 103/3/2
f 97/1/2 98/1/2 103/1/2
f 103/1/2 99/1/2 104/1/2
f 93/1/2 100/1/2 105/1/2
f 101/1/2 102/1/2 105/1/2
f 100/1/2 101/1/2 105/1/2
f 103/2/2 104/2/2 106/2/2
f 105/1/2 102/1/2 106/1/2
f 102/2/2 103/2/2 106/2/2
f 104/1/2 99/1/2 107/1/2
f 106/2/2 104/2/2 107/2/2
f 99/3/2 92/3/2 108/3/2
f 107/1/2 99/1/2 108/1/2
f 108/3/2 92/3/2 109/3/2
f 117/1/3 111/1/3 110/1/3
f 117/3/3 112/3/3 111/3/3
f 118/2/3 113/2/3 112/2/3
f 118/3/3 112/3/3 117/3/3
f 119/3/3 114/3/3 113/3/3
f 119/2/3 113/2/3 118/2/3
f 120/3/3 114/3/3 119/3/3
f 121/1/3 115/1/3 114/1/3
f 121/3/3 114/3/3 120/3/3
f 122/1/3 117/1/3 110/1/3
f 122/1/3 118/1/3 117/1/3
f 122/1/3 119/1/3 118/1/3
f 123/1/3 119/1/3 122/1/3
f 124/3/3 120/3/3 119/3/3
f 124/1/3 119/1/3 123/1/3
f 125/2/3 121/2/3 120/2/3
f 125/3/3 120/3/3 124/3/3
f 126/2/3 123/2/3 122/2/3
f 127/3/3 124/3/3 123/3/3
f 127/2/3 123/2/3 126/2/3
f 128/3/3 124/3/3 127/3/3
f 129/1/3 125/1/3 124/1/3
f 129/3/3 124/3/3 128/3/3
f 130/1/3 129/1/3 128/1/3
f 130/1/3 125/1/3 129/1/3
f 131/2/3 121/2/3 125/2/3
f 131/1/3 125/1/3 130/1/3
f 132/3/3 131/3/3 130/3/3
f 132/2/3 121/2/3 131/2/3
f 133/1/3 115/1/3 121/1/3
f 133/2/3 121/2/3 132/2/3
f 134/3/3 116/3/3 115/3/3
f 134/1/3 115/1/3 133/1/3
f 135/3/3 116/3/3 134/3/3
f 136/3/3 128/3/3 127/3/3
f 136/3/3 127/3/3 126/3/3
f 137/1/3 130/1/3 128/1/3
f 137/3/3 128/3/3 136/3/3
f 138/3/3 132/3/3 130/3/3
f 138/1/3 130/1/3 137/1/3
f 139/1/3 133/1/3 132/1/3
f 139/3/3 132/3/3 138/3/3
f 139/1/3 135/1/3 134/1/3
f 139/1/3 134/1/3 133/1/3
f 140/2/3 137/2/3 136/2/3
f 141/1/3 138/1/3 137/1/3
f 141/2/3 137/2/3 140/2/3
f 141/1/3 139/1/3 138/1/3
f 142/1/3 139/1/3 141/1/3
f 143/1/3 135/1/3 139/1/3
f 143/1/3 139/1/3 142/1/3
f 144/1/3 135/1/3 143/1/3
f 145/1/3 135/1/3 144/1/3
f 146/2/3 140/2/3 136/2/3
f 147/3/3 142/3/3 141/3/3
f 147/2/3 140/2/3 146/2/3
f 147/3/3 141/3/3 140/3/3
f 148/2/3 143/2/3 142/2/3
f 148/3/3 142/3/3 147/3/3
f 149/1/3 144/1/3 143/1/3
f 149/2/3 143/2/3 148/2/3
f 150/3/3 145/3/3 144/3/3
f 150/1/3 144/1/3 149/1/3
f 151/1/3 135/1/3 145/1/3
f 151/3/3 145/3/3 150/3/3
f 152/1/3 135/1/3 151/1/3
f 153/1/4 154/1/4 159/1/4
f 154/2/4 155/2/4 159/2/4
f 159/2/4 155/2/4 160/2/4
f 155/3/4 156/3/4 161/3/4
f 160/2/4 155/2/4 161/2/4
f 161/3/4 156/3/4 162/3/4
f 162/3/4 156/3/4 163/3/4
f 156/1/4 157/1/4 164/1/4
f 163/3/4 156/3/4 164/3/4
f 157/3/4 158/3/4 165/3/4
f 164/1/4 157/1/4 165/1/4
f 159/1/4 160/1/4 166/1/4
f 160/3/4 161/3/4 166/3/4
f 161/2/4 162/2/4 167/2/4
f 166/3/4 161/3/4 167/3/4
f 162/3/4 163/3/4 168/3/4
f 167/2/4 162/2/4 168/2/4
f 163/2/4 164/2/4 169/2/4
f 168/3/4 163/3/4 169/3/4
f 164/2/4 165/2/4 169/2/4
f 165/3/4 158/3/4 170/3/4
f 169/2/4 165/2/4 170/2/4
f 166/2/4 167/2/4 171/2/4
f 159/1/4 166/1/4 171/1/4
f 167/3/4 168/3/4 172/3/4
f 171/2/4 167/2/4 172/2/4
f 168/3/4 169/3/4 172/3/4
f 169/3/4 170/3/4 172/3/4
f 172/3/4 170/3/4 173/3/4
f 159/1/4 171/1/4 174/1/4
f 153/1/4 159/1/4 174/1/4
f 172/1/4 173/1/4 174/1/4
f 171/1/4 172/1/4 174/1/4
f 174/1/4 173/1/4 175/1/4
f 175/1/4 173/1/4 176/1/4
f 176/1/4 173/1/4 177/1/4
f 177/1/4 173/1/4 178/1/4
f 173/3/4 170/3/4 179/3/4
f 178/1/4 173/1/4 179/1/4
f 179/3/4 170/3/4 180/3/4
f 170/3/4 158/3/4 181/3/4
f 180/3/4 170/3/4 181/3/4
f 181/3/4 158/3/4 182/3/4
f 174/3/4 175/3/4 183/3/4
f 175/2/4 176/2/4 183/2/4
f 176/3/4 177/3/4 184/3/4
f 183/2/4 176/2/4 184/2/4
f 177/2/4 178/2/4 185/2/4
f 184/3/4 177/3/4 185/3/4
f 179/1/4 180/1/4 186/1/4
f 185/2/4 178/2/4 186/2/4
f 178/1/4 179/1/4 186/1/4
f 186/1/4 180/1/4 187/1/4
f 180/2/4 181/2/4 188/2/4
f 187/1/4 180/1/4 188/1/4
f 181/1/4 182/1/4 189/1/4
f 188/2/4 181/2/4 189/2/4
f 189/1/4 182/1/4 190/1/4
f 174/3/4 183/3/4 191/3/4
f 183/1/4 184/1/4 192/1/4
f 191/3/4 183/3/4 192/3/4
f 184/1/4 185/1/4 192/1/4
f 186/2/4 187/2/4 193/2/4
f 192/1/4 185/1/4 193/1/4
f 185/2/4 186/2/4 193/2/4
f 187/1/4 188/1/4 194/1/4
f 193/2/4 187/2/4 194/2/4
f 188/1/4 189/1/4 194/1/4
f 194/1/4 189/1/4 195/1/4
f 189/2/4 190/2/4 196/2/4
f 195/1/4 189/1/4 196/1/4
f 191/2/4 192/2/4 197/2/4
f 194/1/4 195/1/4 198/1/4
f 197/2/4 192/2/4 198/2/4
f 192/1/4 193/1/4 198/1/4
f 193/1/4 194/1/4 198/1/4
f 198/1/4 195/1/4 199/1/4
f 195/2/4 196/2/4 200/2/4
f 199/1/4 195/1/4 200/1/4
f 196/2/4 190/2/4 201/2/4
f 200/2/4 196/2/4 201/2/4
f 197/3/4 198/3/4 202/3/4
f 198/1/4 199/1/4 203/1/4
f 202/3/4 198/3/4 203/3/4
f 199/3/4 200/3/4 204/3/4
f 203/1/4 199/1/4 204/1/4
f 200/3/4 201/3/4 204/3/4
f 204/3/4 201/3/4 205/3/4
f 211/1/5 207/1/5 206/1/5
f 212/2/5 208/2/5 207/2/5
f 212/1/5 207/1/5 211/1/5
f 213/3/5 209/3/5 208/3/5
f 213/2/5 208/2/5 212/2/5
f 214/3/5 209/3/5 213/3/5
f 215/3/5 209/3/5 214/3/5
f 216/2/5 210/2/5 209/2/5
f 216/3/5 209/3/5 215/3/5
f 217/2/5 210/2/5 216/2/5
f 218/2/5 210/2/5 217/2/5
f 219/1/5 211/1/5 206/1/5
f 220/2/5 212/2/5 211/2/5
f 220/1/5 211/1/5 219/1/5
f 220/2/5 213/2/5 212/2/5
f 220/2/5 214/2/5 213/2/5
f 221/2/5 214/2/5 220/2/5
f 222/3/5 215/3/5 214/3/5
f 222/2/5 214/2/5 221/2/5
f 223/2/5 217/2/5 216/2/5
f 223/3/5 215/3/5 222/3/5
f 223/2/5 216/2/5 215/2/5
f 224/3/5 218/3/5 217/3/5
f 224/2/5 217/2/5 223/2/5
f 225/3/5 221/3/5 220/3/5
f 225/3/5 220/3/5 219/3/5
f 226/1/5 223/1/5 222/1/5
f 226/3/5 221/3/5 225/3/5
f 226/1/5 222/1/5 221/1/5
f 226/1/5 224/1/5 223/1/5
f 227/1/5 224/1/5 226/1/5
f 228/1/5 224/1/5 227/1/5
f 229/3/5 218/3/5 224/3/5
f 229/1/5 224/1/5 228/1/5
f 230/3/5 218/3/5 229/3/5
f 231/1/5 226/1/5 225/1/5
f 231/1/5 227/1/5 226/1/5
f 232/1/5 227/1/5 231/1/5
f 233/2/5 228/2/5 227/2/5
f 233/1/5 227/1/5 232/1/5
f 234/1/5 230/1/5 229/1/5
f 234/1/5 229/1/5 228/1/5
f 235/1/5 230/1/5 234/1/5
f 236/1/5 231/1/5 225/1/5
f 237/1/5 231/1/5 236/1/5
f 238/3/5 232/3/5 231/3/5
f 238/2/5 233/2/5 232/2/5
f 239/2/5 228/2/5 233/2/5
f 239/2/5 233/2/5 238/2/5
f 240/1/5 234/1/5 228/1/5
f 240/2/5 228/2/5 239/2/5
f 241/1/5 230/1/5 235/1/5
f 241/3/5 235/3/5 234/3/5
f 242/1/5 230/1/5 241/1/5
f 243/2/5 237/2/5 236/2/5
f 244/1/5 231/1/5 237/1/5
f 244/2/5 237/2/5 243/2/5
f 245/3/5 238/3/5 231/3/5
f 245/1/5 231/1/5 244/1/5
f 245/3/5 239/3/5 238/3/5
f 246/3/5 239/3/5 245/3/5
f 247/1/5 240/1/5 239/1/5
f 247/3/5 239/3/5 246/3/5
f 248/1/5 234/1/5 240/1/5
f 248/1/5 240/1/5 247/1/5
f 249/3/5 241/3/5 234/3/5
f 249/1/5 234/1/5 248/1/5
f 250/3/5 244/3/5 243/3/5
f 251/1/5 246/1/5 245/1/5
f 251/3/5 244/3/5 250/3/5
f 251/1/5 245/1/5 244/1/5
f 252/2/5 247/2/5 246/2/5
f 252/1/5 246/1/5 251/1/5
f 253/1/5 248/1/5 247/1/5
f 253/2/5 247/2/5 252/2/5
f 254/3/5 249/3/5 248/3/5
f 254/1/5 248/1/5 253/1/5
f 255/3/5 241/3/5 249/3/5
f 255/3/5 249/3/5 254/3/5
f 256/2/5 242/2/5 241/2/5
f 256/3/5 241/3/5 255/3/5
f 257/2/5 242/2/5 256/2/5
f 258/1/5 251/1/5 250/1/5
f 258/1/5 252/1/5 251/1/5
f 258/1/5 253/1/5 252/1/5
f 259/3/5 254/3/5 253/3/5
f 259/1/5 253/1/5 258/1/5
f 259/3/5 255/3/5 254/3/5
f 260/2/5 256/2/5 255/2/5
f 260/3/5 255/3/5 259/3/5
f 261/3/5 257/3/5 256/3/5
f 261/2/5 256/2/5 260/2/5
f 262/3/5 257/3/5 261/3/5
f 263/3/6 264/3/6 266/3/6
f 266/3/6 264/3/6 267/3/6
f 267/3/6 264/3/6 268/3/6
f 263/3/6 266/3/6 269/3/6
f 266/2/6 267/2/6 270/2/6
f 269/3/6 266/3/6 270/3/6
f 267/1/6 268/1/6 271/1/6
f 270/2/6 267/2/6 271/2/6
f 268/3/6 264/3/6 272/3/6
f 264/1/6 265/1/6 273/1/6
f 272/3/6 264/3/6 273/3/6
f 273/1/6 265/1/6 274/1/6
f 274/1/6 265/1/6 275/1/6
f 269/1/6 270/1/6 276/1/6
f 270/1/6 271/1/6 276/1/6
f 268/3/6 272/3/6 277/3/6
f 276/1/6 271/1/6 277/1/6
f 271/1/6 268/1/6 277/1/6
f 273/1/6 274/1/6 278/1/6
f 277/3/6 272/3/6 278/3/6
f 272/1/6 273/1/6 278/1/6
f 274/3/6 275/3/6 279/3/6
f 278/1/6 274/1/6 279/1/6
f 275/1/6 265/1/6 280/1/6
f 279/3/6 275/3/6 280/3/6
f 269/1/6 276/1/6 281/1/6
f 276/2/6 277/2/6 281/2/6
f 278/1/6 279/1/6 282/1/6
f 281/2/6 277/2/6 282/2/6
f 277/1/6 278/1/6 282/1/6
f 282/1/6 279/1/6 283/1/6
f 283/1/6 279/1/6 284/1/6
f 280/1/6 265/1/6 285/1/6
f 279/2/6 280/2/6 285/2/6
f 285/1/6 265/1/6 286/1/6
f 269/1/6 281/1/6 287/1/6
f 281/1/6 282/1/6 287/1/6
f 282/1/6 283/1/6 287/1/6
f 287/1/6 283/1/6 288/1/6
f 288/1/6 283/1/6 289/1/6
f 283/3/6 284/3/6 290/3/6
f 289/1/6 283/1/6 290/1/6
f 284/1/6 279/1/6 291/1/6
f 285/2/6 286/2/6 291/2/6
f 279/2/6 285/2/6 291/2/6
f 291/2/6 286/2/6 292/2/6
f 269/1/6 287/1/6 293/1/6
f 287/3/6 288/3/6 294/3/6
f 293/1/6 287/1/6 294/1/6
f 288/2/6 289/2/6 295/2/6
f 294/3/6 288/3/6 295/3/6
f 289/3/6 290/3/6 296/3/6
f 295/2/6 289/2/6 296/2/6
f 290/3/6 284/3/6 297/3/6
f 296/3/6 290/3/6 297/3/6
f 284/1/6 291/1/6 298/1/6
f 297/3/6 284/3/6 298/3/6
f 292/2/6 286/2/6 299/2/6
f 291/3/6 292/3/6 299/3/6
f 299/2/6 286/2/6 300/2/6
f 293/3/6 294/3/6 301/3/6
f 294/2/6 295/2/6 301/2/6
f 295/3/6 296/3/6 302/3/6
f 301/2/6 295/2/6 302/2/6
f 296/3/6 297/3/6 302/3/6
f 298/1/6 291/1/6 303/1/6
f 297/1/6 298/1/6 303/1/6
f 291/3/6 299/3/6 304/3/6
f 303/1/6 291/1/6 304/1/6
f 299/1/6 300/1/6 305/1/6
f 304/3/6 299/3/6 305/3/6
f 305/1/6 300/1/6 306/1/6
f 293/3/6 301/3/6 307/3/6
f 301/3/6 302/3/6 307/3/6
f 302/3/6 297/3/6 308/3/6
f 307/3/6 302/3/6 308/3/6
f 297/1/6 303/1/6 308/1/6
f 303/2/6 304/2/6 309/2/6
f 308/1/6 303/1/6 309/1/6
f 304/2/6 305/2/6 309/2/6
f 305/3/6 306/3/6 310/3/6
f 309/2/6 305/2/6 310/2/6
f 310/3/6 306/3/6 311/3/6
