# MagicaVoxel @ Ephtracy

# group
o 

# material
mtllib watering_can.mtl
usemtl palette

# normals
vn -1 0 0
vn 1 0 0
vn 0 0 1
vn 0 0 -1
vn 0 -1 0
vn 0 1 0

# texcoords
vt 0.0175781 0.5
vt 0.0253906 0.5
vt 0.0292969 0.5
vt 0.150391 0.5

# verts
v -0.2 0.1 -0.2
v -0.2 0.1 -0.3
v -0.2 0.8 -0.2
v -0.2 0.8 -0.3
v 5.96046e-08 0 -0.1
v 5.96046e-08 0 -0.4
v 5.96046e-08 0.1 2.23517e-08
v 5.96046e-08 0.1 -0.1
v 5.96046e-08 0.1 -0.2
v 5.96046e-08 0.1 -0.3
v 5.96046e-08 0.1 -0.4
v 5.96046e-08 0.1 -0.5
v 5.96046e-08 0.2 -0.2
v 5.96046e-08 0.2 -0.3
v 5.96046e-08 0.6 2.23517e-08
v 5.96046e-08 0.6 -0.5
v 0.1 0 2.23517e-08
v 0.1 0 -0.1
v 0.1 0 -0.4
v 0.1 0 -0.5
v 0.1 0.1 2.23517e-08
v 0.1 0.1 -0.1
v 0.1 0.1 -0.4
v 0.1 0.1 -0.5
v 0.3 0.5 -0.1
v 0.3 0.5 -0.4
v 0.3 0.6 -0.1
v 0.3 0.6 -0.4
v 0.4 0.1 -0.3
v 0.4 0.1 -0.4
v 0.4 0.3 -0.3
v 0.4 0.3 -0.4
v 0.4 0.4 -0.1
v 0.4 0.4 -0.4
v 0.4 0.5 -0.1
v 0.4 0.5 -0.4
v 0.4 0.6 -0.2
v 0.4 0.6 -0.3
v 0.4 0.7 -0.2
v 0.4 0.7 -0.3
v 0.6 0.3 -0.1
v 0.6 0.3 -0.2
v 0.6 0.3 -0.3
v 0.6 0.3 -0.4
v 0.6 0.4 -0.1
v 0.6 0.4 -0.2
v 0.6 0.4 -0.3
v 0.6 0.4 -0.4
v 0.6 0.5 -0.2
v 0.6 0.5 -0.3
v 0.7 0.4 -0.1
v 0.7 0.4 -0.2
v 0.7 0.4 -0.3
v 0.7 0.4 -0.4
v 0.7 0.5 -0.1
v 0.7 0.5 -0.2
v 0.7 0.5 -0.3
v 0.7 0.5 -0.4
v 0.7 0.6 -0.2
v 0.7 0.6 -0.3
v 0.8 0.3 -0.1
v 0.8 0.3 -0.2
v 0.8 0.3 -0.3
v 0.8 0.3 -0.4
v 0.8 0.4 -0.1
v 0.8 0.4 -0.2
v 0.8 0.4 -0.3
v 0.8 0.4 -0.4
v 0.8 0.5 -0.1
v 0.8 0.5 -0.2
v 0.8 0.5 -0.3
v 0.8 0.5 -0.4
v 0.8 0.6 -0.1
v 0.8 0.6 -0.2
v 0.8 0.6 -0.3
v 0.8 0.6 -0.4
v -0.0999999 0.2 -0.2
v -0.0999999 0.2 -0.3
v -0.0999999 0.7 -0.2
v -0.0999999 0.7 -0.3
v 0.1 0.1 -0.3
v 0.1 0.1 -0.4
v 0.1 0.3 -0.3
v 0.1 0.3 -0.4
v 0.1 0.4 -0.1
v 0.1 0.4 -0.4
v 0.1 0.6 -0.1
v 0.1 0.6 -0.4
v 0.4 0 2.23517e-08
v 0.4 0 -0.1
v 0.4 0 -0.4
v 0.4 0 -0.5
v 0.4 0.1 2.23517e-08
v 0.4 0.1 -0.1
v 0.4 0.1 -0.4
v 0.4 0.1 -0.5
v 0.5 0 -0.1
v 0.5 0 -0.4
v 0.5 0.1 2.23517e-08
v 0.5 0.1 -0.1
v 0.5 0.1 -0.2
v 0.5 0.1 -0.3
v 0.5 0.1 -0.4
v 0.5 0.1 -0.5
v 0.5 0.2 -0.1
v 0.5 0.2 -0.2
v 0.5 0.2 -0.3
v 0.5 0.2 -0.4
v 0.5 0.3 -0.1
v 0.5 0.3 -0.2
v 0.5 0.3 -0.3
v 0.5 0.3 -0.4
v 0.5 0.4 -0.2
v 0.5 0.4 -0.3
v 0.5 0.6 2.23517e-08
v 0.5 0.6 -0.2
v 0.5 0.6 -0.3
v 0.5 0.6 -0.5
v 0.5 0.8 -0.2
v 0.5 0.8 -0.3
v 0.6 0.1 -0.2
v 0.6 0.1 -0.3
v 0.6 0.2 -0.1
v 0.6 0.2 -0.2
v 0.6 0.2 -0.3
v 0.6 0.2 -0.4
v 0.6 0.3 -0.1
v 0.6 0.3 -0.2
v 0.6 0.3 -0.3
v 0.6 0.3 -0.4
v 0.7 0.2 -0.2
v 0.7 0.2 -0.3
v 0.7 0.3 -0.1
v 0.7 0.3 -0.2
v 0.7 0.3 -0.3
v 0.7 0.3 -0.4
v 0.7 0.4 -0.1
v 0.7 0.4 -0.2
v 0.7 0.4 -0.3
v 0.7 0.4 -0.4
v 0.8 0.4 -0.2
v 0.8 0.4 -0.3
v 0.8 0.5 -0.2
v 0.8 0.5 -0.3
v 0.9 0.3 -0.1
v 0.9 0.3 -0.4
v 0.9 0.4 -0.2
v 0.9 0.4 -0.3
v 0.9 0.5 -0.2
v 0.9 0.5 -0.3
v 0.9 0.6 -0.1
v 0.9 0.6 -0.4
v 5.96046e-08 0.1 2.23517e-08
v 5.96046e-08 0.6 2.23517e-08
v 0.1 0 2.23517e-08
v 0.1 0.1 2.23517e-08
v 0.4 0 2.23517e-08
v 0.4 0.1 2.23517e-08
v 0.5 0.1 2.23517e-08
v 0.5 0.6 2.23517e-08
v 5.96046e-08 0 -0.1
v 5.96046e-08 0.1 -0.1
v 0.1 0 -0.1
v 0.1 0.1 -0.1
v 0.4 0 -0.1
v 0.4 0.1 -0.1
v 0.5 0 -0.1
v 0.5 0.1 -0.1
v 0.5 0.2 -0.1
v 0.5 0.3 -0.1
v 0.6 0.2 -0.1
v 0.6 0.3 -0.1
v 0.6 0.4 -0.1
v 0.7 0.3 -0.1
v 0.7 0.4 -0.1
v 0.7 0.5 -0.1
v 0.8 0.3 -0.1
v 0.8 0.4 -0.1
v 0.8 0.5 -0.1
v 0.8 0.6 -0.1
v 0.9 0.3 -0.1
v 0.9 0.6 -0.1
v -0.2 0.1 -0.2
v -0.2 0.8 -0.2
v -0.0999999 0.2 -0.2
v -0.0999999 0.7 -0.2
v 5.96046e-08 0.1 -0.2
v 5.96046e-08 0.2 -0.2
v 0.4 0.6 -0.2
v 0.4 0.7 -0.2
v 0.5 0.1 -0.2
v 0.5 0.2 -0.2
v 0.5 0.3 -0.2
v 0.5 0.4 -0.2
v 0.5 0.6 -0.2
v 0.5 0.8 -0.2
v 0.6 0.1 -0.2
v 0.6 0.2 -0.2
v 0.6 0.3 -0.2
v 0.6 0.4 -0.2
v 0.6 0.5 -0.2
v 0.7 0.2 -0.2
v 0.7 0.3 -0.2
v 0.7 0.4 -0.2
v 0.7 0.5 -0.2
v 0.7 0.6 -0.2
v 0.8 0.3 -0.2
v 0.8 0.4 -0.2
v 0.8 0.5 -0.2
v 0.8 0.6 -0.2
v 0.8 0.4 -0.3
v 0.8 0.5 -0.3
v 0.9 0.4 -0.3
v 0.9 0.5 -0.3
v 0.1 0.1 -0.4
v 0.1 0.3 -0.4
v 0.1 0.4 -0.4
v 0.1 0.6 -0.4
v 0.3 0.5 -0.4
v 0.3 0.6 -0.4
v 0.4 0.1 -0.4
v 0.4 0.3 -0.4
v 0.4 0.4 -0.4
v 0.4 0.5 -0.4
v 0.1 0.4 -0.1
v 0.1 0.6 -0.1
v 0.3 0.5 -0.1
v 0.3 0.6 -0.1
v 0.4 0.4 -0.1
v 0.4 0.5 -0.1
v 0.8 0.4 -0.2
v 0.8 0.5 -0.2
v 0.9 0.4 -0.2
v 0.9 0.5 -0.2
v -0.2 0.1 -0.3
v -0.2 0.8 -0.3
v -0.0999999 0.2 -0.3
v -0.0999999 0.7 -0.3
v 5.96046e-08 0.1 -0.3
v 5.96046e-08 0.2 -0.3
v 0.1 0.1 -0.3
v 0.1 0.3 -0.3
v 0.4 0.1 -0.3
v 0.4 0.3 -0.3
v 0.4 0.6 -0.3
v 0.4 0.7 -0.3
v 0.5 0.1 -0.3
v 0.5 0.2 -0.3
v 0.5 0.3 -0.3
v 0.5 0.4 -0.3
v 0.5 0.6 -0.3
v 0.5 0.8 -0.3
v 0.6 0.1 -0.3
v 0.6 0.2 -0.3
v 0.6 0.3 -0.3
v 0.6 0.4 -0.3
v 0.6 0.5 -0.3
v 0.7 0.2 -0.3
v 0.7 0.3 -0.3
v 0.7 0.4 -0.3
v 0.7 0.5 -0.3
v 0.7 0.6 -0.3
v 0.8 0.3 -0.3
v 0.8 0.4 -0.3
v 0.8 0.5 -0.3
v 0.8 0.6 -0.3
v 5.96046e-08 0 -0.4
v 5.96046e-08 0.1 -0.4
v 0.1 0 -0.4
v 0.1 0.1 -0.4
v 0.4 0 -0.4
v 0.4 0.1 -0.4
v 0.5 0 -0.4
v 0.5 0.1 -0.4
v 0.5 0.2 -0.4
v 0.5 0.3 -0.4
v 0.6 0.2 -0.4
v 0.6 0.3 -0.4
v 0.6 0.4 -0.4
v 0.7 0.3 -0.4
v 0.7 0.4 -0.4
v 0.7 0.5 -0.4
v 0.8 0.3 -0.4
v 0.8 0.4 -0.4
v 0.8 0.5 -0.4
v 0.8 0.6 -0.4
v 0.9 0.3 -0.4
v 0.9 0.6 -0.4
v 5.96046e-08 0.1 -0.5
v 5.96046e-08 0.6 -0.5
v 0.1 0 -0.5
v 0.1 0.1 -0.5
v 0.4 0 -0.5
v 0.4 0.1 -0.5
v 0.5 0.1 -0.5
v 0.5 0.6 -0.5
v 0.1 0 2.23517e-08
v 0.4 0 2.23517e-08
v 5.96046e-08 0 -0.1
v 0.1 0 -0.1
v 0.4 0 -0.1
v 0.5 0 -0.1
v 5.96046e-08 0 -0.4
v 0.1 0 -0.4
v 0.4 0 -0.4
v 0.5 0 -0.4
v 0.1 0 -0.5
v 0.4 0 -0.5
v 5.96046e-08 0.1 2.23517e-08
v 0.1 0.1 2.23517e-08
v 0.4 0.1 2.23517e-08
v 0.5 0.1 2.23517e-08
v 5.96046e-08 0.1 -0.1
v 0.1 0.1 -0.1
v 0.4 0.1 -0.1
v 0.5 0.1 -0.1
v -0.2 0.1 -0.2
v 5.96046e-08 0.1 -0.2
v 0.5 0.1 -0.2
v 0.6 0.1 -0.2
v -0.2 0.1 -0.3
v 5.96046e-08 0.1 -0.3
v 0.5 0.1 -0.3
v 0.6 0.1 -0.3
v 5.96046e-08 0.1 -0.4
v 0.1 0.1 -0.4
v 0.4 0.1 -0.4
v 0.5 0.1 -0.4
v 5.96046e-08 0.1 -0.5
v 0.1 0.1 -0.5
v 0.4 0.1 -0.5
v 0.5 0.1 -0.5
v 0.5 0.2 -0.1
v 0.6 0.2 -0.1
v 0.5 0.2 -0.2
v 0.6 0.2 -0.2
v 0.7 0.2 -0.2
v 0.5 0.2 -0.3
v 0.6 0.2 -0.3
v 0.7 0.2 -0.3
v 0.5 0.2 -0.4
v 0.6 0.2 -0.4
v 0.6 0.3 -0.1
v 0.7 0.3 -0.1
v 0.8 0.3 -0.1
v 0.9 0.3 -0.1
v 0.6 0.3 -0.2
v 0.7 0.3 -0.2
v 0.8 0.3 -0.2
v 0.1 0.3 -0.3
v 0.4 0.3 -0.3
v 0.6 0.3 -0.3
v 0.7 0.3 -0.3
v 0.8 0.3 -0.3
v 0.1 0.3 -0.4
v 0.4 0.3 -0.4
v 0.6 0.3 -0.4
v 0.7 0.3 -0.4
v 0.8 0.3 -0.4
v 0.9 0.3 -0.4
v 0.7 0.4 -0.1
v 0.8 0.4 -0.1
v 0.7 0.4 -0.2
v 0.8 0.4 -0.2
v 0.7 0.4 -0.3
v 0.8 0.4 -0.3
v 0.7 0.4 -0.4
v 0.8 0.4 -0.4
v 0.3 0.5 -0.1
v 0.4 0.5 -0.1
v 0.8 0.5 -0.2
v 0.9 0.5 -0.2
v 0.8 0.5 -0.3
v 0.9 0.5 -0.3
v 0.3 0.5 -0.4
v 0.4 0.5 -0.4
v -0.0999999 0.7 -0.2
v 0.4 0.7 -0.2
v -0.0999999 0.7 -0.3
v 0.4 0.7 -0.3
v 0.1 0.1 -0.3
v 0.4 0.1 -0.3
v 0.1 0.1 -0.4
v 0.4 0.1 -0.4
v -0.0999999 0.2 -0.2
v 5.96046e-08 0.2 -0.2
v -0.0999999 0.2 -0.3
v 5.96046e-08 0.2 -0.3
v 0.5 0.3 -0.1
v 0.6 0.3 -0.1
v 0.5 0.3 -0.2
v 0.6 0.3 -0.2
v 0.5 0.3 -0.3
v 0.6 0.3 -0.3
v 0.5 0.3 -0.4
v 0.6 0.3 -0.4
v 0.1 0.4 -0.1
v 0.4 0.4 -0.1
v 0.6 0.4 -0.1
v 0.7 0.4 -0.1
v 0.5 0.4 -0.2
v 0.6 0.4 -0.2
v 0.7 0.4 -0.2
v 0.8 0.4 -0.2
v 0.9 0.4 -0.2
v 0.5 0.4 -0.3
v 0.6 0.4 -0.3
v 0.7 0.4 -0.3
v 0.8 0.4 -0.3
v 0.9 0.4 -0.3
v 0.1 0.4 -0.4
v 0.4 0.4 -0.4
v 0.6 0.4 -0.4
v 0.7 0.4 -0.4
v 0.7 0.5 -0.1
v 0.8 0.5 -0.1
v 0.6 0.5 -0.2
v 0.7 0.5 -0.2
v 0.8 0.5 -0.2
v 0.6 0.5 -0.3
v 0.7 0.5 -0.3
v 0.8 0.5 -0.3
v 0.7 0.5 -0.4
v 0.8 0.5 -0.4
v 5.96046e-08 0.6 2.23517e-08
v 0.5 0.6 2.23517e-08
v 0.1 0.6 -0.1
v 0.3 0.6 -0.1
v 0.8 0.6 -0.1
v 0.9 0.6 -0.1
v 0.4 0.6 -0.2
v 0.5 0.6 -0.2
v 0.7 0.6 -0.2
v 0.8 0.6 -0.2
v 0.4 0.6 -0.3
v 0.5 0.6 -0.3
v 0.7 0.6 -0.3
v 0.8 0.6 -0.3
v 0.1 0.6 -0.4
v 0.3 0.6 -0.4
v 0.8 0.6 -0.4
v 0.9 0.6 -0.4
v 5.96046e-08 0.6 -0.5
v 0.5 0.6 -0.5
v -0.2 0.8 -0.2
v 0.5 0.8 -0.2
v -0.2 0.8 -0.3
v 0.5 0.8 -0.3

# faces
f 3/3/1 2/3/1 1/3/1
f 4/3/1 2/3/1 3/3/1
f 8/2/1 6/2/1 5/2/1
f 9/2/1 6/2/1 8/2/1
f 10/2/1 6/2/1 9/2/1
f 11/2/1 6/2/1 10/2/1
f 13/2/1 8/2/1 7/2/1
f 13/2/1 9/2/1 8/2/1
f 14/2/1 12/2/1 11/2/1
f 14/2/1 11/2/1 10/2/1
f 15/2/1 13/2/1 7/2/1
f 15/2/1 14/2/1 13/2/1
f 16/2/1 12/2/1 14/2/1
f 16/2/1 14/2/1 15/2/1
f 21/2/1 18/2/1 17/2/1
f 22/2/1 18/2/1 21/2/1
f 23/2/1 20/2/1 19/2/1
f 24/2/1 20/2/1 23/2/1
f 27/2/1 26/2/1 25/2/1
f 28/2/1 26/2/1 27/2/1
f 31/2/1 30/2/1 29/2/1
f 32/2/1 30/2/1 31/2/1
f 35/2/1 34/2/1 33/2/1
f 36/2/1 34/2/1 35/2/1
f 39/3/1 38/3/1 37/3/1
f 40/3/1 38/3/1 39/3/1
f 45/2/1 42/2/1 41/2/1
f 46/2/1 42/2/1 45/2/1
f 47/2/1 44/2/1 43/2/1
f 48/2/1 44/2/1 47/2/1
f 49/2/1 47/2/1 46/2/1
f 50/2/1 47/2/1 49/2/1
f 55/2/1 52/2/1 51/2/1
f 56/2/1 52/2/1 55/2/1
f 57/2/1 54/2/1 53/2/1
f 58/2/1 54/2/1 57/2/1
f 59/2/1 57/2/1 56/2/1
f 60/2/1 57/2/1 59/2/1
f 65/4/1 62/4/1 61/4/1
f 66/4/1 62/4/1 65/4/1
f 67/4/1 64/4/1 63/4/1
f 68/4/1 64/4/1 67/4/1
f 73/4/1 70/4/1 69/4/1
f 74/4/1 70/4/1 73/4/1
f 75/4/1 72/4/1 71/4/1
f 76/4/1 72/4/1 75/4/1
f 77/3/2 78/3/2 79/3/2
f 79/3/2 78/3/2 80/3/2
f 81/2/2 82/2/2 83/2/2
f 83/2/2 82/2/2 84/2/2
f 85/2/2 86/2/2 87/2/2
f 87/2/2 86/2/2 88/2/2
f 89/2/2 90/2/2 93/2/2
f 93/2/2 90/2/2 94/2/2
f 91/2/2 92/2/2 95/2/2
f 95/2/2 92/2/2 96/2/2
f 97/2/2 98/2/2 100/2/2
f 100/2/2 98/2/2 101/2/2
f 101/2/2 98/2/2 102/2/2
f 102/2/2 98/2/2 103/2/2
f 99/2/2 100/2/2 105/2/2
f 100/2/2 101/2/2 105/2/2
f 105/2/2 101/2/2 106/2/2
f 103/2/2 104/2/2 107/2/2
f 102/2/2 103/2/2 107/2/2
f 107/2/2 104/2/2 108/2/2
f 99/2/2 105/2/2 109/2/2
f 108/2/2 104/2/2 112/2/2
f 109/2/2 110/2/2 113/2/2
f 111/2/2 112/2/2 114/2/2
f 109/2/2 113/2/2 115/2/2
f 113/2/2 114/2/2 115/2/2
f 99/2/2 109/2/2 115/2/2
f 115/2/2 114/2/2 116/2/2
f 114/2/2 112/2/2 117/2/2
f 116/2/2 114/2/2 117/2/2
f 112/2/2 104/2/2 118/2/2
f 117/2/2 112/2/2 118/2/2
f 116/3/2 117/3/2 119/3/2
f 119/3/2 117/3/2 120/3/2
f 121/2/2 122/2/2 124/2/2
f 124/2/2 122/2/2 125/2/2
f 123/2/2 124/2/2 127/2/2
f 127/2/2 124/2/2 128/2/2
f 125/2/2 126/2/2 129/2/2
f 129/2/2 126/2/2 130/2/2
f 131/2/2 132/2/2 134/2/2
f 134/2/2 132/2/2 135/2/2
f 133/2/2 134/2/2 137/2/2
f 137/2/2 134/2/2 138/2/2
f 135/2/2 136/2/2 139/2/2
f 139/2/2 136/2/2 140/2/2
f 141/2/2 142/2/2 143/2/2
f 143/2/2 142/2/2 144/2/2
f 145/4/2 146/4/2 147/4/2
f 147/4/2 146/4/2 148/4/2
f 145/4/2 147/4/2 149/4/2
f 148/4/2 146/4/2 150/4/2
f 145/4/2 149/4/2 151/4/2
f 149/4/2 150/4/2 151/4/2
f 150/4/2 146/4/2 152/4/2
f 151/4/2 150/4/2 152/4/2
f 156/2/3 154/2/3 153/2/3
f 157/2/3 156/2/3 155/2/3
f 158/2/3 154/2/3 156/2/3
f 158/2/3 156/2/3 157/2/3
f 159/2/3 154/2/3 158/2/3
f 160/2/3 154/2/3 159/2/3
f 163/2/3 162/2/3 161/2/3
f 164/2/3 162/2/3 163/2/3
f 167/2/3 166/2/3 165/2/3
f 168/2/3 166/2/3 167/2/3
f 171/2/3 170/2/3 169/2/3
f 172/2/3 170/2/3 171/2/3
f 174/2/3 173/2/3 172/2/3
f 175/2/3 173/2/3 174/2/3
f 178/2/3 176/2/3 175/2/3
f 179/2/3 176/2/3 178/2/3
f 181/4/3 178/4/3 177/4/3
f 181/4/3 180/4/3 179/4/3
f 181/4/3 179/4/3 178/4/3
f 182/4/3 180/4/3 181/4/3
f 185/3/3 184/3/3 183/3/3
f 186/3/3 184/3/3 185/3/3
f 187/3/3 185/3/3 183/3/3
f 188/3/3 185/3/3 187/3/3
f 190/3/3 184/3/3 186/3/3
f 195/3/3 190/3/3 189/3/3
f 196/3/3 184/3/3 190/3/3
f 196/3/3 190/3/3 195/3/3
f 197/2/3 192/2/3 191/2/3
f 198/2/3 192/2/3 197/2/3
f 199/2/3 194/2/3 193/2/3
f 200/2/3 194/2/3 199/2/3
f 202/2/3 199/2/3 198/2/3
f 203/2/3 199/2/3 202/2/3
f 204/2/3 201/2/3 200/2/3
f 205/2/3 201/2/3 204/2/3
f 207/2/3 204/2/3 203/2/3
f 208/2/3 204/2/3 207/2/3
f 209/2/3 206/2/3 205/2/3
f 210/2/3 206/2/3 209/2/3
f 213/4/3 212/4/3 211/4/3
f 214/4/3 212/4/3 213/4/3
f 219/2/3 218/2/3 217/2/3
f 220/2/3 218/2/3 219/2/3
f 221/2/3 216/2/3 215/2/3
f 222/2/3 216/2/3 221/2/3
f 223/2/3 219/2/3 217/2/3
f 224/2/3 219/2/3 223/2/3
f 225/2/4 226/2/4 227/2/4
f 227/2/4 226/2/4 228/2/4
f 225/2/4 227/2/4 229/2/4
f 229/2/4 227/2/4 230/2/4
f 231/4/4 232/4/4 233/4/4
f 233/4/4 232/4/4 234/4/4
f 235/3/4 236/3/4 237/3/4
f 237/3/4 236/3/4 238/3/4
f 235/3/4 237/3/4 239/3/4
f 239/3/4 237/3/4 240/3/4
f 241/1/4 242/1/4 243/1/4
f 243/1/4 242/1/4 244/1/4
f 238/3/4 236/3/4 246/3/4
f 245/3/4 246/3/4 251/3/4
f 246/3/4 236/3/4 252/3/4
f 251/3/4 246/3/4 252/3/4
f 247/2/4 248/2/4 253/2/4
f 253/2/4 248/2/4 254/2/4
f 249/2/4 250/2/4 255/2/4
f 255/2/4 250/2/4 256/2/4
f 254/2/4 255/2/4 258/2/4
f 258/2/4 255/2/4 259/2/4
f 256/2/4 257/2/4 260/2/4
f 260/2/4 257/2/4 261/2/4
f 259/2/4 260/2/4 263/2/4
f 263/2/4 260/2/4 264/2/4
f 261/2/4 262/2/4 265/2/4
f 265/2/4 262/2/4 266/2/4
f 267/2/4 268/2/4 269/2/4
f 269/2/4 268/2/4 270/2/4
f 271/2/4 272/2/4 273/2/4
f 273/2/4 272/2/4 274/2/4
f 275/2/4 276/2/4 277/2/4
f 277/2/4 276/2/4 278/2/4
f 278/2/4 279/2/4 280/2/4
f 280/2/4 279/2/4 281/2/4
f 281/2/4 282/2/4 284/2/4
f 284/2/4 282/2/4 285/2/4
f 283/4/4 284/4/4 287/4/4
f 285/4/4 286/4/4 287/4/4
f 284/4/4 285/4/4 287/4/4
f 287/4/4 286/4/4 288/4/4
f 289/2/4 290/2/4 292/2/4
f 291/2/4 292/2/4 293/2/4
f 292/2/4 290/2/4 294/2/4
f 293/2/4 292/2/4 294/2/4
f 294/2/4 290/2/4 295/2/4
f 295/2/4 290/2/4 296/2/4
f 300/2/5 298/2/5 297/2/5
f 301/2/5 298/2/5 300/2/5
f 303/2/5 300/2/5 299/2/5
f 303/2/5 302/2/5 301/2/5
f 303/2/5 301/2/5 300/2/5
f 304/2/5 302/2/5 303/2/5
f 305/2/5 302/2/5 304/2/5
f 306/2/5 302/2/5 305/2/5
f 307/2/5 305/2/5 304/2/5
f 308/2/5 305/2/5 307/2/5
f 313/2/5 310/2/5 309/2/5
f 314/2/5 310/2/5 313/2/5
f 315/2/5 312/2/5 311/2/5
f 316/2/5 312/2/5 315/2/5
f 321/3/5 318/3/5 317/3/5
f 322/3/5 318/3/5 321/3/5
f 323/2/5 320/2/5 319/2/5
f 324/2/5 320/2/5 323/2/5
f 329/2/5 326/2/5 325/2/5
f 330/2/5 326/2/5 329/2/5
f 331/2/5 328/2/5 327/2/5
f 332/2/5 328/2/5 331/2/5
f 335/2/5 334/2/5 333/2/5
f 336/2/5 334/2/5 335/2/5
f 339/2/5 337/2/5 336/2/5
f 340/2/5 337/2/5 339/2/5
f 341/2/5 339/2/5 338/2/5
f 342/2/5 339/2/5 341/2/5
f 347/2/5 344/2/5 343/2/5
f 348/2/5 344/2/5 347/2/5
f 349/4/5 346/4/5 345/4/5
f 353/2/5 349/2/5 348/2/5
f 354/4/5 346/4/5 349/4/5
f 354/2/5 349/2/5 353/2/5
f 355/1/5 351/1/5 350/1/5
f 356/1/5 351/1/5 355/1/5
f 357/2/5 353/2/5 352/2/5
f 358/2/5 353/2/5 357/2/5
f 359/4/5 346/4/5 354/4/5
f 360/4/5 346/4/5 359/4/5
f 363/2/5 362/2/5 361/2/5
f 364/2/5 362/2/5 363/2/5
f 367/2/5 366/2/5 365/2/5
f 368/2/5 366/2/5 367/2/5
f 373/4/5 372/4/5 371/4/5
f 374/4/5 372/4/5 373/4/5
f 375/2/5 370/2/5 369/2/5
f 376/2/5 370/2/5 375/2/5
f 379/3/5 378/3/5 377/3/5
f 380/3/5 378/3/5 379/3/5
f 381/2/6 382/2/6 383/2/6
f 383/2/6 382/2/6 384/2/6
f 385/3/6 386/3/6 387/3/6
f 387/3/6 386/3/6 388/3/6
f 389/2/6 390/2/6 391/2/6
f 391/2/6 390/2/6 392/2/6
f 393/2/6 394/2/6 395/2/6
f 395/2/6 394/2/6 396/2/6
f 399/2/6 400/2/6 402/2/6
f 402/2/6 400/2/6 403/2/6
f 401/2/6 402/2/6 406/2/6
f 406/2/6 402/2/6 407/2/6
f 404/4/6 405/4/6 409/4/6
f 409/4/6 405/4/6 410/4/6
f 397/1/6 398/1/6 411/1/6
f 411/1/6 398/1/6 412/1/6
f 407/2/6 408/2/6 413/2/6
f 413/2/6 408/2/6 414/2/6
f 415/2/6 416/2/6 418/2/6
f 418/2/6 416/2/6 419/2/6
f 417/2/6 418/2/6 420/2/6
f 420/2/6 418/2/6 421/2/6
f 421/2/6 422/2/6 423/2/6
f 423/2/6 422/2/6 424/2/6
f 425/2/6 426/2/6 427/2/6
f 427/2/6 426/2/6 428/2/6
f 428/2/6 426/2/6 431/2/6
f 431/2/6 426/2/6 432/2/6
f 429/4/6 430/4/6 434/4/6
f 428/2/6 431/2/6 435/2/6
f 433/2/6 434/2/6 437/2/6
f 434/4/6 430/4/6 438/4/6
f 437/2/6 434/2/6 438/2/6
f 425/2/6 427/2/6 439/2/6
f 435/2/6 436/2/6 440/2/6
f 428/2/6 435/2/6 440/2/6
f 438/4/6 430/4/6 441/4/6
f 441/4/6 430/4/6 442/4/6
f 439/2/6 440/2/6 443/2/6
f 425/2/6 439/2/6 443/2/6
f 440/2/6 436/2/6 444/2/6
f 443/2/6 440/2/6 444/2/6
f 445/3/6 446/3/6 447/3/6
f 447/3/6 446/3/6 448/3/6
